<svg width="36" height="36" viewBox="0 0 36 36" fill="none" xmlns="http://www.w3.org/2000/svg">
<path fill-rule="evenodd" clip-rule="evenodd" d="M15.6445 0.000921327C15.4422 0.0209662 15.2547 0.115542 15.1184 0.266229C14.982 0.416915 14.9067 0.612938 14.9069 0.816147V15.3219H0.81522C0.599259 15.3227 0.392374 15.4089 0.239666 15.5616C0.0869574 15.7143 0.000808877 15.9212 0 16.1371V20.2779C0.000808877 20.4939 0.0869574 20.7008 0.239666 20.8535C0.392374 21.0062 0.599259 21.0923 0.81522 21.0931H14.9069V35.1848C14.9077 35.4008 14.9938 35.6077 15.1465 35.7604C15.2993 35.9131 15.5061 35.9992 15.7221 36H20.277C20.4929 35.9992 20.6998 35.9131 20.8525 35.7604C21.0052 35.6077 21.0914 35.4008 21.0922 35.1848V21.0931H35.1839C35.3998 21.0923 35.6067 21.0062 35.7594 20.8535C35.9121 20.7008 35.9983 20.4939 35.9991 20.2779V16.1371C35.9983 15.9212 35.9121 15.7143 35.7594 15.5616C35.6067 15.4089 35.3998 15.3227 35.1839 15.3219H21.0922V0.816147C21.0914 0.600187 21.0052 0.39329 20.8525 0.240582C20.6998 0.087874 20.4929 0.00173344 20.277 0.000921327H15.7221C15.6962 -0.000307109 15.6703 -0.000307109 15.6445 0.000921327Z" fill="#585858"/>
</svg>
