<svg width="37" height="44" viewBox="0 0 37 44" fill="none" xmlns="http://www.w3.org/2000/svg">
<path fill-rule="evenodd" clip-rule="evenodd" d="M17.8321 3.46067C17.0126 3.46067 16.2149 3.7268 15.5588 4.21955C14.6043 4.9364 14.0418 6.06211 14.0418 7.25842V7.37079H22.5424V7.25842C22.5424 6.06211 21.9799 4.9364 21.0254 4.21955C20.3694 3.7268 19.5717 3.46067 18.7522 3.46067H17.8321ZM26.0031 7.37079V7.25842C26.0031 4.97472 24.9294 2.82351 23.1037 1.45236C21.8485 0.509752 20.3217 0 18.7522 0H17.8321C16.2626 0 14.7357 0.509752 13.4806 1.45236C11.6549 2.82351 10.5812 4.97472 10.5812 7.25842V7.37079H1.73034C0.774697 7.37079 0 8.14549 0 9.10113C0 10.0568 0.774697 10.8315 1.73034 10.8315H34.8539C35.8096 10.8315 36.5843 10.0568 36.5843 9.10113C36.5843 8.14549 35.8096 7.37079 34.8539 7.37079H26.0031ZM4.49062 12.8989C5.44626 12.8989 6.22096 13.6736 6.22096 14.6292V26.6561C6.22096 32.6008 7.05552 35.9106 8.72535 37.7997C10.3341 39.6196 13.1113 40.5393 18.2921 40.5393C23.473 40.5393 26.2502 39.6196 27.8589 37.7997C29.5287 35.9106 30.3633 32.6008 30.3633 26.6561V14.6292C30.3633 13.6736 31.138 12.8989 32.0937 12.8989C33.0493 12.8989 33.824 13.6736 33.824 14.6292V26.6561C33.824 32.6655 33.0411 37.1624 30.4519 40.0916C27.8015 43.0899 23.6779 44 18.2921 44C12.9063 44 8.7828 43.0899 6.13241 40.0916C3.54314 37.1624 2.76028 32.6655 2.76028 26.6561V14.6292C2.76028 13.6736 3.53498 12.8989 4.49062 12.8989ZM13.2316 17.736C14.1872 17.736 14.9619 18.5107 14.9619 19.4663V30.9832C14.9619 31.9388 14.1872 32.7135 13.2316 32.7135C12.276 32.7135 11.5013 31.9388 11.5013 30.9832V19.4663C11.5013 18.5107 12.276 17.736 13.2316 17.736ZM23.3527 17.736C24.3083 17.736 25.083 18.5107 25.083 19.4663V30.9832C25.083 31.9388 24.3083 32.7135 23.3527 32.7135C22.397 32.7135 21.6223 31.9388 21.6223 30.9832V19.4663C21.6223 18.5107 22.397 17.736 23.3527 17.736Z" fill="white"/>
</svg>
