<svg width="18" height="18" viewBox="0 0 18 18" fill="none" xmlns="http://www.w3.org/2000/svg">
<path d="M0.784313 11.8466C0.630363 11.9996 0.531866 12.1996 0.504421 12.415L0.00591246 16.9447C-0.00997282 17.0864 0.0062513 17.2298 0.0533815 17.3644C0.100512 17.4989 0.177337 17.6212 0.278158 17.722C0.378978 17.8228 0.501204 17.8996 0.635767 17.9467C0.770329 17.9938 0.913772 18.01 1.05545 17.9941L5.58515 17.4956C5.80044 17.4682 6.00042 17.3697 6.15347 17.2158L14.5833 8.78591L9.21414 3.41666L0.784313 11.8466Z" fill="white"/>
<path d="M16.892 6.47728C17.6023 5.76489 18.0008 4.79975 18 3.79379C17.9992 2.78784 17.5993 1.8233 16.888 1.11199C16.1766 0.40068 15.2121 0.000742591 14.2061 1.03307e-06C13.2002 -0.000740525 12.235 0.397774 11.5227 1.10804L10.4561 2.17489L15.8252 7.54414L16.892 6.47728Z" fill="white"/>
</svg>
