<svg width="128" height="80" viewBox="0 0 128 80" fill="none" xmlns="http://www.w3.org/2000/svg">
<mask id="mask0_3_241" style="mask-type:luminance" maskUnits="userSpaceOnUse" x="0" y="0" width="128" height="80">
<path d="M128 0H0V80H128V0Z" fill="white"/>
</mask>
<g mask="url(#mask0_3_241)">
<path d="M6.82101 54.716L8.85601 58.23C9.27601 58.953 9.87701 59.554 10.6 59.974L17.867 47.398H3.33301C3.33301 48.232 3.55201 49.052 3.96701 49.776L6.82101 54.716Z" fill="#0066DA"/>
</g>
<mask id="mask1_3_241" style="mask-type:luminance" maskUnits="userSpaceOnUse" x="0" y="0" width="128" height="80">
<path d="M128 0H0V80H128V0Z" fill="white"/>
</mask>
<g mask="url(#mask1_3_241)">
<path d="M26.398 32.603L19.132 20.027C18.409 20.447 17.808 21.048 17.389 21.771L3.96701 45.02C3.55201 45.744 3.33301 46.563 3.33301 47.397H17.866L26.398 32.603Z" fill="#00AC47"/>
</g>
<mask id="mask2_3_241" style="mask-type:luminance" maskUnits="userSpaceOnUse" x="0" y="0" width="128" height="80">
<path d="M128 0H0V80H128V0Z" fill="white"/>
</mask>
<g mask="url(#mask2_3_241)">
<path d="M26.398 32.603L33.664 20.027C32.943 19.606 32.121 19.388 31.286 19.394H21.51C20.676 19.401 19.858 19.619 19.132 20.028L26.398 32.603Z" fill="#00832D"/>
</g>
<mask id="mask3_3_241" style="mask-type:luminance" maskUnits="userSpaceOnUse" x="0" y="0" width="128" height="80">
<path d="M128 0H0V80H128V0Z" fill="white"/>
</mask>
<g mask="url(#mask3_3_241)">
<path d="M34.93 47.397H17.866L10.599 59.973C11.32 60.394 12.142 60.612 12.976 60.606H39.819C40.652 60.599 41.471 60.381 42.196 59.972L34.93 47.397Z" fill="#2684FC"/>
</g>
<mask id="mask4_3_241" style="mask-type:luminance" maskUnits="userSpaceOnUse" x="0" y="0" width="128" height="80">
<path d="M128 0H0V80H128V0Z" fill="white"/>
</mask>
<g mask="url(#mask4_3_241)">
<path d="M42.197 59.974C42.92 59.554 43.521 58.953 43.941 58.23L44.786 56.775L48.828 49.774C49.243 49.051 49.461 48.232 49.462 47.398H34.958L42.197 59.974Z" fill="#EA4335"/>
</g>
<mask id="mask5_3_241" style="mask-type:luminance" maskUnits="userSpaceOnUse" x="0" y="0" width="128" height="80">
<path d="M128 0H0V80H128V0Z" fill="white"/>
</mask>
<g mask="url(#mask5_3_241)">
<path d="M42.118 33.395L35.407 21.77C34.988 21.047 34.387 20.446 33.664 20.026L26.398 32.602L34.93 47.396H49.437C49.436 46.562 49.218 45.743 48.803 45.019L42.118 33.395Z" fill="#FFBA00"/>
</g>
<mask id="mask6_3_241" style="mask-type:luminance" maskUnits="userSpaceOnUse" x="0" y="0" width="128" height="80">
<path d="M128 0H0V80H128V0Z" fill="white"/>
</mask>
<g mask="url(#mask6_3_241)">
<path d="M93.501 30.607C93.965 30.529 94.471 30.516 94.912 30.705C95.223 30.924 95.535 31.176 95.719 31.516C95.91 32.072 95.91 32.708 95.709 33.263C95.471 33.689 95.077 34.077 94.572 34.142C94.074 34.221 93.525 34.224 93.07 33.979C92.712 33.703 92.347 33.351 92.279 32.883C92.183 32.397 92.213 31.864 92.44 31.42C92.71 31.065 93.042 30.695 93.501 30.607Z" fill="#55585D"/>
</g>
<mask id="mask7_3_241" style="mask-type:luminance" maskUnits="userSpaceOnUse" x="0" y="0" width="128" height="80">
<path d="M128 0H0V80H128V0Z" fill="white"/>
</mask>
<g mask="url(#mask7_3_241)">
<path d="M64.221 30.745C66.481 30.699 68.742 30.742 71.004 30.723C71.312 30.711 71.619 30.756 71.91 30.858C72.593 31.004 73.327 30.961 73.967 31.273C76.782 32.099 79.138 34.418 79.957 37.24C80.285 37.871 80.221 38.608 80.389 39.284C80.575 39.925 80.493 40.597 80.51 41.255C80.525 41.581 80.455 41.899 80.356 42.208C80.273 42.83 80.258 43.471 80.056 44.069C79.857 44.454 79.81 44.898 79.588 45.274C78.61 47.52 76.654 49.309 74.341 50.108C73.874 50.362 73.333 50.365 72.829 50.488C72.313 50.695 71.744 50.689 71.197 50.727C68.87 50.731 66.544 50.744 64.218 50.721C64.234 44.064 64.228 37.404 64.221 30.745ZM66.894 33.279C66.873 38.248 66.88 43.217 66.891 48.186C68.073 48.187 69.254 48.203 70.436 48.179C71.299 48.092 72.208 48.176 73.023 47.824C73.774 47.602 74.49 47.254 75.118 46.786C75.968 46.176 76.585 45.306 77.066 44.388C77.172 44.126 77.229 43.846 77.343 43.587C77.588 43.037 77.588 42.423 77.675 41.838C77.907 41.064 77.85 40.228 77.652 39.455C77.522 37.395 76.353 35.427 74.582 34.356C74.254 34.127 73.867 34.013 73.515 33.83C73.142 33.644 72.713 33.636 72.326 33.49C71.875 33.316 71.384 33.342 70.909 33.327C69.573 33.234 68.232 33.286 66.894 33.279Z" fill="#55585D"/>
</g>
<mask id="mask8_3_241" style="mask-type:luminance" maskUnits="userSpaceOnUse" x="0" y="0" width="128" height="80">
<path d="M128 0H0V80H128V0Z" fill="white"/>
</mask>
<g mask="url(#mask8_3_241)">
<path d="M115.72 36.972C116.248 36.704 116.851 36.659 117.433 36.637C118.271 36.631 119.12 36.595 119.944 36.778C120.835 37.06 121.718 37.438 122.416 38.076C123.197 38.756 123.801 39.635 124.149 40.608C124.237 41.028 124.467 41.405 124.513 41.835C124.634 42.675 124.684 43.528 124.659 44.376C121.102 44.416 117.545 44.393 113.988 44.387C113.923 45.007 114.191 45.569 114.351 46.15C114.777 47.104 115.555 47.89 116.49 48.353C117.418 48.719 118.491 48.99 119.454 48.582C120.607 48.274 121.596 47.38 122.06 46.288C122.913 46.597 123.679 47.094 124.523 47.421C123.852 48.73 122.774 49.854 121.425 50.466C121.035 50.709 120.58 50.797 120.162 50.977C119.398 51.176 118.601 51.158 117.818 51.154C117.177 51.152 116.519 51.103 115.926 50.84C114.322 50.371 113.02 49.155 112.189 47.733C111.886 47.193 111.654 46.616 111.54 46.006C111.229 45.285 111.3 44.484 111.288 43.718C111.297 43.075 111.26 42.4 111.526 41.798C111.879 40.127 112.923 38.625 114.323 37.656C114.754 37.362 115.219 37.117 115.72 36.972ZM117.107 39.116C116.813 39.244 116.501 39.326 116.209 39.457C115.211 40.017 114.455 41.011 114.232 42.137C116.775 42.152 119.319 42.143 121.863 42.142C121.797 41.121 121.15 40.177 120.303 39.623C119.929 39.337 119.442 39.299 119.021 39.111C118.393 38.987 117.73 38.956 117.107 39.116Z" fill="#55585D"/>
</g>
<mask id="mask9_3_241" style="mask-type:luminance" maskUnits="userSpaceOnUse" x="0" y="0" width="128" height="80">
<path d="M128 0H0V80H128V0Z" fill="white"/>
</mask>
<g mask="url(#mask9_3_241)">
<path d="M87.481 36.965C88.209 36.577 89.072 36.626 89.867 36.709C90.215 36.754 90.619 36.754 90.873 37.035C90.872 37.434 90.739 37.821 90.573 38.18C90.42 38.538 90.395 38.932 90.272 39.3C90.182 39.421 90.04 39.509 89.885 39.455C89.189 39.339 88.478 39.31 87.784 39.454C86.674 39.807 85.767 40.702 85.356 41.786C85.081 42.289 85.117 42.881 85.078 43.435C85.08 45.864 85.066 48.294 85.086 50.722C84.206 50.741 83.324 50.729 82.444 50.73C82.435 46.173 82.436 41.615 82.444 37.059C83.295 37.074 84.151 37.003 84.998 37.104C84.99 37.747 84.973 38.391 85.011 39.034C85.294 38.663 85.534 38.253 85.883 37.937C86.351 37.518 86.887 37.171 87.481 36.965Z" fill="#55585D"/>
</g>
<mask id="mask10_3_241" style="mask-type:luminance" maskUnits="userSpaceOnUse" x="0" y="0" width="128" height="80">
<path d="M128 0H0V80H128V0Z" fill="white"/>
</mask>
<g mask="url(#mask10_3_241)">
<path d="M92.722 37.062C93.606 37.049 94.49 37.055 95.374 37.058C95.377 41.615 95.38 46.172 95.372 50.728C94.489 50.735 93.605 50.736 92.721 50.727C92.727 46.173 92.727 41.618 92.722 37.062Z" fill="#55585D"/>
</g>
<mask id="mask11_3_241" style="mask-type:luminance" maskUnits="userSpaceOnUse" x="0" y="0" width="128" height="80">
<path d="M128 0H0V80H128V0Z" fill="white"/>
</mask>
<g mask="url(#mask11_3_241)">
<path d="M97.197 37.06C98.097 37.058 98.998 37.04 99.898 37.066C100.249 37.074 100.209 37.493 100.314 37.732C101.232 40.158 102.164 42.577 103.063 45.01C103.273 45.399 103.35 45.841 103.549 46.234C103.719 46.637 103.752 47.101 104.054 47.44C104.71 45.886 105.25 44.285 105.903 42.728C106.001 42.281 106.235 41.887 106.371 41.453C106.804 40.343 107.233 39.231 107.654 38.115C107.82 37.797 107.919 37.45 107.991 37.1C108.958 37.004 109.934 37.065 110.904 37.064C110.579 37.876 110.278 38.698 109.903 39.49C109.762 39.853 109.668 40.235 109.481 40.58C108.567 42.805 107.666 45.037 106.746 47.259C106.329 48.371 105.814 49.445 105.432 50.57C105.302 50.778 105.044 50.724 104.838 50.735C104.111 50.731 103.383 50.732 102.655 50.729C102.546 50.265 102.271 49.868 102.149 49.409C101.214 47.097 100.263 44.79 99.34 42.473C99.002 41.75 98.776 40.98 98.432 40.261C98.174 39.639 97.97 38.997 97.676 38.391C97.545 37.938 97.281 37.531 97.197 37.06Z" fill="#55585D"/>
</g>
</svg>
