<svg width="552" height="200" viewBox="0 0 552 200" fill="none" xmlns="http://www.w3.org/2000/svg">
<g clip-path="url(#clip0_891_110)">
<path d="M100 0C126.522 0 151.957 10.5357 170.711 29.2893C189.464 48.043 200 73.4784 200 100C200 126.522 189.464 151.957 170.711 170.711C151.957 189.464 126.522 200 100 200C73.4784 200 48.043 189.464 29.2893 170.711C10.5357 151.957 0 126.522 0 100C0 73.4784 10.5357 48.043 29.2893 29.2893C48.043 10.5357 73.4784 0 100 0Z" fill="#D13732"/>
<path d="M114.437 140.75H83.1875C82.2722 140.541 81.3216 140.542 80.4065 140.751C79.4913 140.96 78.635 141.373 77.9011 141.958C77.1672 142.543 76.5747 143.287 76.1674 144.132C75.7602 144.978 75.5487 145.905 75.5487 146.844C75.5487 147.783 75.7602 148.709 76.1674 149.555C76.5747 150.401 77.1672 151.144 77.9011 151.73C78.635 152.315 79.4913 152.728 80.4065 152.937C81.3216 153.146 82.2722 153.146 83.1875 152.938H114.437C116.095 152.938 117.685 152.279 118.857 151.107C120.029 149.935 120.687 148.345 120.687 146.688C120.691 145.103 120.093 143.576 119.014 142.416C117.935 141.256 116.456 140.548 114.875 140.438L114.437 140.75Z" fill="white"/>
<path d="M146.563 47.9997H51.375C48.4512 47.9154 45.6131 48.9925 43.4814 50.9954C41.3497 52.9983 40.0979 55.7639 40 58.6872V115.937C40 118.943 41.1898 121.827 43.3095 123.959C45.4293 126.09 48.3065 127.296 51.3125 127.312H147C150.006 127.312 152.89 126.122 155.021 124.003C157.153 121.883 158.358 119.006 158.375 116V58.9997C158.198 55.999 156.872 53.1816 154.673 51.1331C152.473 49.0846 149.568 47.9624 146.563 47.9997ZM113.625 91.7497L94.0625 107.187C93.6852 107.565 93.237 107.865 92.7437 108.07C92.2504 108.274 91.7216 108.379 91.1875 108.379C90.6534 108.379 90.1246 108.274 89.6313 108.07C89.138 107.865 88.6898 107.565 88.3125 107.187C87.614 106.439 87.2138 105.461 87.1875 104.437V74.0622C87.2039 72.9791 87.6457 71.9458 88.4176 71.1857C89.1894 70.4256 90.2292 69.9996 91.3125 69.9997C92.3484 70.0244 93.3342 70.4501 94.0625 71.1872L113.625 86.6247C114.275 87.3568 114.634 88.3019 114.634 89.281C114.634 90.2601 114.275 91.2052 113.625 91.9372V91.7497Z" fill="white"/>
</g>
<path d="M264.727 55.1016H282.012V109.477C282.012 116.586 281.387 122.055 280.137 125.883C278.457 130.883 275.41 134.906 270.996 137.953C266.582 140.961 260.762 142.465 253.535 142.465C245.059 142.465 238.535 140.102 233.965 135.375C229.395 130.609 227.09 123.637 227.051 114.457L243.398 112.582C243.594 117.504 244.316 120.98 245.566 123.012C247.441 126.098 250.293 127.641 254.121 127.641C257.988 127.641 260.723 126.547 262.324 124.359C263.926 122.133 264.727 117.543 264.727 110.59V55.1016ZM300.41 70.3359V55.1016H316.875V70.3359H300.41ZM300.41 141V78.7734H316.875V141H300.41ZM330 109.008C330 103.539 331.348 98.2461 334.043 93.1289C336.738 88.0117 340.547 84.1055 345.469 81.4102C350.43 78.7148 355.957 77.3672 362.051 77.3672C371.465 77.3672 379.18 80.4336 385.195 86.5664C391.211 92.6602 394.219 100.375 394.219 109.711C394.219 119.125 391.172 126.938 385.078 133.148C379.023 139.32 371.387 142.406 362.168 142.406C356.465 142.406 351.016 141.117 345.82 138.539C340.664 135.961 336.738 132.191 334.043 127.23C331.348 122.23 330 116.156 330 109.008ZM346.875 109.887C346.875 116.059 348.34 120.785 351.27 124.066C354.199 127.348 357.812 128.988 362.109 128.988C366.406 128.988 370 127.348 372.891 124.066C375.82 120.785 377.285 116.02 377.285 109.77C377.285 103.676 375.82 98.9883 372.891 95.707C370 92.4258 366.406 90.7852 362.109 90.7852C357.812 90.7852 354.199 92.4258 351.27 95.707C348.34 98.9883 346.875 103.715 346.875 109.887ZM426.621 141V69.6328H401.133V55.1016H469.395V69.6328H443.965V141H426.621ZM502.559 141L471.855 55.1016H490.664L512.402 118.676L533.438 55.1016H551.836L521.074 141H502.559Z" fill="black"/>
<defs>
<clipPath id="clip0_891_110">
<rect width="200" height="200" fill="white"/>
</clipPath>
</defs>
</svg>
