<svg width="727" height="212" viewBox="0 0 727 212" fill="none" xmlns="http://www.w3.org/2000/svg">
<path d="M64.9096 203.113C22.525 183.236 0.375312 150.342 0.0920022 103.725C-0.195337 56.4432 36.6296 12.258 83.1025 3.10318C141.86 -8.47171 196.617 27.9728 208.446 86.5289C219.618 141.831 181.312 198.663 125.95 209.052C105.133 212.958 84.9028 211.381 64.9096 203.113Z" fill="#1FCCB0"/>
<path d="M419.25 62.2052C431.702 57.9985 443.614 59.0423 454.986 64.3267C461.725 67.4584 465.099 73.6646 466.668 80.8381C467.142 83.005 466.51 83.9132 464.213 83.8727C459.218 83.7845 454.219 83.766 449.226 83.8913C447.541 83.9336 447.064 83.0748 446.386 81.8075C442.413 74.376 428.801 72.5548 422.918 78.5926C420.24 81.3409 421.424 86.7245 425.216 88.5888C430.042 90.9611 435.411 91.5393 440.518 92.9794C446.127 94.5611 451.64 96.379 456.855 98.9616C470.614 105.775 473.498 123.703 462.677 134.737C449.535 148.138 421.882 149.316 407.565 137.053C403.231 133.341 400.629 128.645 399.862 122.949C399.493 120.217 399.871 118.496 403.371 118.924C406.161 119.264 409.031 119.105 411.855 118.966C416.292 118.749 420.76 118.101 421.914 124.288C422.108 125.327 423.57 126.466 424.705 126.939C431.02 129.567 437.544 130.508 444.127 128.047C450.715 125.584 451.564 119.977 446.197 115.397C443.978 113.503 441.282 112.698 438.543 111.982C432.277 110.345 425.988 108.788 419.748 107.057C406.62 103.415 399.587 91.5028 403.034 78.5178C405.237 70.2199 411.616 65.7925 419.25 62.2052Z" fill="#181818"/>
<path d="M582.737 143.462C580.038 142.187 581.777 139.702 580.426 137.872C572.449 145.593 562.831 146.876 552.503 144.298C545.248 142.487 540.884 137.019 540.141 129.205C539.411 121.525 541.515 114.957 548.573 110.907C556.503 106.358 565.255 105.785 574.169 105.884C576.06 105.905 579.299 107.673 579.853 104.302C580.469 100.553 580.457 96.5114 576.131 94.3539C570.717 91.6542 565.344 92.8829 561.852 97.9564C560.91 99.3255 559.938 99.5449 558.57 99.5392C554.41 99.5219 550.247 99.4226 546.092 99.5723C543.375 99.6702 543.071 98.5265 543.662 96.2477C545.309 89.9007 549.525 85.7699 555.392 83.6403C565.002 80.1521 574.939 79.7916 584.787 82.6158C593.665 85.1619 598.868 92.5971 598.946 102.597C599.042 114.907 598.746 127.221 598.946 139.528C599.003 143.051 597.712 143.748 594.642 143.582C590.826 143.376 586.991 143.524 582.737 143.462Z" fill="#1A1A1A"/>
<path d="M528.042 87.9859C531.728 92.6129 533.194 97.6258 533.179 103.104C533.145 115.085 532.875 127.07 533.123 139.045C533.204 142.966 531.966 144.014 528.368 143.581C526.235 143.324 524.013 143.292 521.89 143.585C517.533 144.185 515.269 142.737 516.079 137.135C508.382 145.09 499.481 146.34 489.985 144.939C481.645 143.708 476.707 138.605 475.268 130.238C473.813 121.783 477.31 114.138 484.435 110.4C490.308 107.319 496.641 106.254 503.212 106.364C504.874 106.392 506.551 106.589 508.193 106.426C510.226 106.224 513.264 107.636 514.074 105.415C515.126 102.53 514.67 99.1513 512.539 96.4559C508.821 91.7526 500.166 91.6745 496.922 96.8182C495.336 99.3322 493.718 99.593 491.365 99.5488C488.204 99.4894 485.016 99.2834 481.885 99.5937C477.353 100.043 477.141 97.7405 478.439 94.574C480.555 89.4119 484.274 85.5419 489.515 83.7283C500.173 80.0407 510.976 79.6488 521.752 83.4786C524.161 84.335 526.159 85.7739 528.042 87.9859Z" fill="#1A1A1A"/>
<path d="M686.96 104.671C686.883 116.424 686.746 127.741 686.924 139.053C686.976 142.403 686.271 143.972 682.598 143.576C677.835 143.062 671.437 145.609 668.708 142.558C666.357 139.93 668.012 133.666 668.002 129.009C667.97 114.677 668.071 100.343 667.924 86.0125C667.893 83.0281 668.545 81.7446 671.755 82.0926C674.391 82.3783 677.104 82.371 679.744 82.103C684.638 81.6061 687.822 82.5103 685.064 90.0093C687.76 87.696 689.041 86.3891 690.517 85.3637C698.476 79.8372 707.076 79.3323 715.602 83.3851C723.654 87.2121 725.833 94.8416 725.959 103.033C726.152 115.529 725.874 128.033 726.101 140.528C726.161 143.83 725.018 144.489 722.132 144.218C717.363 143.768 710.991 146.252 708.244 143.231C705.886 140.637 707.552 134.369 707.475 129.725C707.347 122.066 707.486 114.393 707.065 106.75C706.686 99.8679 704.032 96.4424 699.592 95.8824C692.71 95.0144 689.637 97.0556 686.96 104.671Z" fill="#191919"/>
<path d="M361.148 80.9932C377.202 80.996 386.801 86.9167 391.534 99.4511C396.82 113.446 393.752 129.438 383.666 138.052C373.757 146.515 362.261 147.482 350.409 143.226C339.171 139.192 333.408 130.527 331.81 118.853C331.124 113.84 331.263 108.869 332.425 103.991C335.76 89.9926 345.023 82.5288 361.148 80.9932Z" fill="#181818"/>
<path d="M291.448 128.261C287.733 138.854 280.44 144.13 269.762 145.146C261.997 145.885 254.511 145.576 247.627 141.257C239.654 136.255 236.843 128.605 236.129 119.748C235.946 117.477 236.886 116.855 238.988 116.961C241.647 117.094 244.327 117.144 246.979 116.959C251.589 116.636 255.471 116.484 256.009 122.966C256.381 127.454 260.479 128.136 264.416 128.116C268.552 128.094 270.915 125.89 271.842 122.097C272.23 120.511 272.14 118.789 272.142 117.129C272.161 99.974 272.23 82.8178 272.086 65.6635C272.059 62.3924 272.596 60.7153 276.356 61.099C281.765 61.651 289.039 58.8304 292.122 62.1904C294.815 65.1253 292.972 72.295 292.992 77.5943C293.04 90.7522 292.964 103.911 293.036 117.068C293.056 120.765 292.754 124.374 291.448 128.261Z" fill="#181818"/>
<path d="M635.759 111.554C638.197 102.675 640.693 94.2288 642.744 85.676C643.45 82.7347 644.723 81.9041 647.501 82.1045C650.318 82.3076 653.16 82.1486 655.992 82.1494C661.81 82.1509 661.826 82.1563 660.101 87.4999C654.493 104.87 648.749 122.198 643.366 139.637C642.357 142.904 640.899 143.978 637.791 143.548C636.974 143.435 636.128 143.531 635.295 143.531C621.218 143.531 621.256 143.519 617.064 130.3C612.054 114.498 606.972 98.72 601.673 82.1556C608.017 82.1556 613.895 82.21 619.771 82.1321C622.602 82.0946 622.294 84.47 622.723 85.9802C625.58 96.0366 628.261 106.143 631.024 116.226C631.369 117.487 631.859 118.708 632.421 120.356C634.848 117.751 634.403 114.513 635.759 111.554Z" fill="#191919"/>
<path d="M303.805 124.998C303.805 111.866 303.9 99.2323 303.739 86.6019C303.699 83.3971 304.11 81.5899 307.933 82.0896C312.636 82.7042 318.79 80.0425 321.754 83.1641C324.469 86.0237 322.488 92.0484 322.516 96.6735C322.601 110.801 322.454 124.931 322.615 139.058C322.653 142.372 322.005 143.917 318.298 143.616C313.68 143.242 307.61 145.121 304.767 142.818C301.771 140.39 304.115 134.085 303.818 129.486C303.733 128.161 303.805 126.827 303.805 124.998Z" fill="#1D1D1D"/>
<path d="M316.98 73.2443C309.719 74.7683 304.3 72.2102 302.934 66.9201C301.372 60.8715 303.802 56.4981 309.766 54.6232C315.167 52.9253 321.302 55.5129 323.079 60.2386C325.124 65.6781 323.01 70.4386 316.98 73.2443Z" fill="#1A1A1A"/>
<path d="M44.8131 80.537C48.8487 70.8178 54.7682 62.8782 62.3048 56.1C66.8792 51.986 68.535 52.2526 71.2734 57.5728C85.8172 85.8292 94.9596 115.7 98.1334 147.358C98.1997 148.019 98.2369 148.708 98.4552 149.324C98.9694 150.776 98.2431 153.103 100.491 153.385C102.601 153.65 103.079 151.595 103.643 150.08C109.123 135.375 112.945 120.255 115.018 104.69C117.606 85.2573 117.448 65.8761 114.314 46.5093C113.599 42.0908 115.596 40.6808 121.047 42.2214C140.987 47.8565 155.997 59.5825 164.995 78.5231C165.28 79.1232 165.542 79.7348 165.795 80.3495C169.576 89.5591 169.502 89.4203 160.693 94.0649C131.334 109.543 112.6 133.366 104.836 165.707C103.371 171.811 102.332 172.425 97.3857 171.202C93.8417 170.325 94.3487 167.594 94.2011 165.287C92.9352 145.494 86.3302 127.636 74.8893 111.523C67.6697 101.354 58.6298 93.0596 48.3533 86.0528C46.5381 84.8152 43.8464 84.0583 44.8131 80.537Z" fill="#FCFEFE"/>
<path d="M114.334 171.168C113.267 171.342 112.616 171.492 111.958 171.582C109.97 171.852 107.765 172.361 106.678 170.059C105.618 167.814 107.389 166.329 108.702 164.874C112.61 160.542 116.797 156.505 121.43 152.936C131.577 145.121 142.87 139.618 155.199 136.258C157.325 135.678 160.024 134.3 161.638 136.71C163.169 138.996 161.231 141.147 159.961 143.048C149.147 159.244 133.715 168.035 114.334 171.168Z" fill="#FAFEFD"/>
<path d="M51.6766 141.409C52.8793 139.879 54.1604 139.912 55.5001 140.336C69.0583 144.626 81.2929 150.892 89.3372 163.285C90.4462 164.993 92.4908 166.871 90.5975 169.034C88.9756 170.888 86.8436 169.516 85.0218 168.92C72.5417 164.837 62.2109 157.618 54.1064 147.299C52.8529 145.703 50.8664 144.268 51.6766 141.409Z" fill="#F9FEFD"/>
<path d="M566.666 117.011C568.593 116.925 570.088 116.769 571.567 116.863C574.234 117.033 577.752 114.669 579.323 118.317C580.921 122.03 578.48 128.401 575.127 130.232C571.704 132.1 567.9 132.699 564.102 131.524C561.038 130.577 558.935 128.487 558.88 125.057C558.801 120.142 562.108 118.191 566.666 117.011Z" fill="#FCFCFC"/>
<path d="M513.034 116.604C515.578 121.221 514.801 125.604 511.545 129.027C508.322 132.415 503.743 132.613 499.403 131.591C496.31 130.864 494.099 128.748 493.878 125.296C493.662 121.933 495.263 119.511 498.278 118.132C502.84 116.045 507.776 116.994 513.034 116.604Z" fill="#FCFCFC"/>
<path d="M372.94 100.263C376.393 107.474 376.901 114.631 374.997 121.918C373.458 127.809 368.925 131.455 363.693 131.403C358.699 131.354 353.867 127.287 352.592 121.656C351.082 114.989 349.831 108.181 353.366 101.765C358.058 93.2512 366.32 92.5513 372.94 100.263Z" fill="#FCFCFC"/>
</svg>
