<?xml version="1.0" encoding="UTF-8" standalone="no"?>
<svg
   version="1.1"
   id="Layer_1"
   x="0px"
   y="0px"
   viewBox="0 0 370 113"
   enable-background="new 0 0 415 135"
   xml:space="preserve"
   sodipodi:docname="Kodi (software) logo.svg"
   inkscape:version="1.2 (dc2aedaf03, 2022-05-15)"
   width="370"
   height="113"
   xmlns:inkscape="http://www.inkscape.org/namespaces/inkscape"
   xmlns:sodipodi="http://sodipodi.sourceforge.net/DTD/sodipodi-0.dtd"
   xmlns="http://www.w3.org/2000/svg"
   xmlns:svg="http://www.w3.org/2000/svg"><defs
   id="defs21" /><sodipodi:namedview
   id="namedview19"
   pagecolor="#ffffff"
   bordercolor="#000000"
   borderopacity="0.25"
   inkscape:showpageshadow="2"
   inkscape:pageopacity="0.0"
   inkscape:pagecheckerboard="0"
   inkscape:deskcolor="#d1d1d1"
   showgrid="false"
   inkscape:zoom="2.8284271"
   inkscape:cx="137.17872"
   inkscape:cy="46.315494"
   inkscape:window-width="1920"
   inkscape:window-height="1009"
   inkscape:window-x="-8"
   inkscape:window-y="-8"
   inkscape:window-maximized="1"
   inkscape:current-layer="Layer_1" />
<path
   fill="#17b2e7"
   d="m 113.46051,57.436875 c -0.364,1.182 -1.163,2.047 -2.018,2.898 -5.73,5.71 -11.442,11.439 -17.161001,17.162 -2.06,2.063 -4.262,2.056 -6.33,-0.014 -5.901,-5.906 -11.803,-11.812 -17.702,-17.719 -2.009,-2.012 -2.008,-4.209 0.006,-6.226 5.933,-5.941 11.866,-11.881 17.801,-17.819 1.931,-1.933 4.199,-1.933 6.13,-0.002 5.754,5.754 11.499001,11.517 17.262001,17.261 0.856,0.853 1.651,1.722 2.012,2.905 0,0.519 0,1.036 0,1.554 z"
   id="path2" />
<path
   fill="#17b2e7"
   d="m 56.579509,112.76388 c -1.176,-0.374 -2.029,-1.188 -2.877,-2.042 -5.705,-5.734 -11.429,-11.451005 -17.146,-17.175005 -2.046,-2.05 -2.048,-4.233 -0.006,-6.278 5.917,-5.922 11.833,-11.843 17.753,-17.765 1.968,-1.968 4.221,-1.976 6.178,-0.017 5.918,5.92 11.835,11.844 17.751,17.767 2.032,2.036 2.038,4.265 0.014,6.291 -5.766,5.772 -11.542,11.538005 -17.295,17.323005 -0.824,0.826 -1.671,1.572 -2.818,1.896 -0.519,0 -1.036,0 -1.554,0 z"
   id="path4" />
<path
   fill="#17b2e7"
   d="m 35.813509,42.469875 c 0,-6.584 0.059,-13.168 -0.038,-19.752 -0.028,-1.906 0.428,-3.395 1.883,-4.651 1.171,-1.012 2.208,-2.179 3.305,-3.277 4.337,-4.341 8.675,-8.6839998 13.014,-13.0239998 2.041,-2.04099999 4.241,-2.03899999 6.28,0.001 5.902,5.904 11.803,11.8089998 17.704,17.7139998 2.027,2.028 2.025,4.259 -0.002,6.289 -6.979,6.987 -13.959,13.974 -20.94,20.96 -6.164,6.17 -12.327,12.341 -18.492,18.509 -1.142,1.144 -2.154,0.877 -2.569,-0.707 -0.128,-0.489 -0.138,-1.021 -0.139,-1.532 -0.009,-6.844 -0.006,-13.687 -0.006,-20.53 z"
   id="path6" />
<path
   fill="#17b2e7"
   d="m 21.700509,56.736875 c 0,6.043 0.008,12.086 -0.012,18.129 -0.002,0.574 -0.094,1.182 -0.299,1.713 -0.403,1.05 -1.16,1.18 -1.952,0.39 -2.779,-2.774 -5.55,-5.558 -8.324,-8.335 -3.2069999,-3.212 -6.4129999,-6.423 -9.6179999,-9.637 -1.32700005,-1.328 -1.33200005,-3.174 -0.011,-4.511 5.901,-5.969 11.8039999,-11.938 17.7089999,-17.904 0.39,-0.395 0.758,-0.93 1.421,-0.679 0.634,0.239 0.885,0.811 0.975,1.446 0.057,0.393 0.101,0.792 0.101,1.188 0.006,6.067 0.004,12.134 0.004,18.201 0.003,-0.001 0.005,-0.001 0.006,-0.001 z"
   id="path8" />
<path
   fill="#F6F6F6"
   d="m 178.91851,50.126875 c 1.18,1.566 2.347,3.118 3.514,4.668 2.475,3.291 4.951,6.581 7.425,9.871 3.185,4.231 6.367,8.462 9.551,12.694 3.119,4.146 6.238,8.293 9.363,12.436 0.23,0.307 0.332,0.617 0.166,0.97 -0.168,0.358 -0.496,0.474 -0.863,0.495 -0.169,0.01 -0.34,0.001 -0.51,0.001 -2.877,0 -5.756,-0.002 -8.635,0.003 -0.492,10e-4 -0.854,-0.164 -1.16,-0.574 -5.43,-7.256 -10.871,-14.504 -16.31,-21.752 -3.089,-4.117 -6.18,-8.231 -9.269,-12.347 -0.025,-0.035 -0.055,-0.063 -0.1,-0.116 -0.375,0.35 -0.747,0.694 -1.117,1.041 -2.505,2.344 -5.009,4.688 -7.514,7.028 -1.381,1.291 -2.762,2.581 -4.15,3.862 -0.179,0.166 -0.253,0.33 -0.252,0.574 0.006,7.01 0.005,14.02 0.005,21.029 0,0.084 0.002,0.17 0,0.255 -0.018,0.644 -0.344,0.991 -0.987,0.994 -2.454,0.011 -4.907,0.009 -7.36,10e-4 -0.623,-0.002 -0.951,-0.354 -0.962,-0.979 -0.002,-0.073 0,-0.147 0,-0.223 0,-22.262 0,-44.523 0,-66.784 0,-0.021 0,-0.043 0,-0.064 0,-0.845 0.306,-1.153 1.145,-1.153 2.241,-0.001 4.481,-0.001 6.723,-0.001 0.148,0 0.298,-0.005 0.446,0.001 0.649,0.03 0.968,0.349 0.997,0.995 0.004,0.096 0,0.191 0,0.287 0,10.792 0,21.583 0,32.373 0,0.124 0,0.246 0,0.449 0.557,-0.519 1.058,-0.986 1.558,-1.454 2.958,-2.775 5.914,-5.553 8.874,-8.327 3.881,-3.638 7.765,-7.271 11.646,-10.911 3.253,-3.05 6.503,-6.103 9.755,-9.154 1.371,-1.287 2.746,-2.569 4.111,-3.859 0.287,-0.271 0.612,-0.401 1.002,-0.401 3.432,0.001 6.861,0 10.293,0.001 0.584,0 0.914,0.212 1.037,0.647 0.102,0.361 -0.037,0.643 -0.289,0.885 -0.992,0.944 -1.986,1.887 -2.982,2.827 -1.762,1.661 -3.526,3.319 -5.288,4.979 -2.442,2.301 -4.884,4.602 -7.324,6.905 -2.501,2.36 -5,4.725 -7.502,7.085 -1.668,1.577 -3.34,3.146 -5.037,4.743 z"
   id="path10"
   style="fill:#0a0a0a;fill-opacity:1" />
<path
   fill="#F6F6F6"
   d="m 243.57351,21.224875 c 0.634,0.04 1.269,0.08 1.903,0.124 4.865,0.336 9.518,1.477 13.863,3.735 3.106,1.614 5.859,3.703 8.315,6.195 2.667,2.704 4.873,5.737 6.534,9.158 1.219,2.511 2.063,5.146 2.649,7.871 0.72,3.34 0.955,6.722 0.813,10.125 -0.229,5.458 -1.438,10.678 -4.012,15.536 -1.797,3.39 -4.138,6.362 -6.922,8.992 -4.466,4.217 -9.699,6.968 -15.713,8.241 -2.226,0.472 -4.471,0.768 -6.744,0.839 -0.104,0.004 -0.205,0.034 -0.309,0.05 -0.893,0 -1.784,0 -2.676,0 -0.581,-0.041 -1.162,-0.082 -1.743,-0.124 -6.965,-0.503 -13.32,-2.657 -18.828,-7.039 -4.346,-3.458 -7.751,-7.679 -10.073,-12.743 -1.181,-2.576 -1.969,-5.273 -2.496,-8.054 -0.597,-3.144 -0.785,-6.317 -0.625,-9.506 0.336,-6.713 2.104,-12.982 6,-18.537 4.558,-6.5 10.52,-11.122 18.215,-13.356 2.345,-0.681 4.735,-1.134 7.172,-1.322 0.772,-0.06 1.548,-0.089 2.32,-0.137 0.127,-0.007 0.252,-0.032 0.377,-0.049 0.663,0.001 1.322,0.001 1.98,0.001 z m -1.057,61.757 c 2.476,-0.021 4.871,-0.223 7.221,-0.804 5.119,-1.265 9.375,-3.918 12.758,-7.967 3.453,-4.13 5.249,-8.931 5.736,-14.255 0.168,-1.82 0.187,-3.645 0.078,-5.472 -0.117,-1.983 -0.379,-3.946 -0.906,-5.864 -1.643,-5.99 -5.006,-10.768 -10.176,-14.225 -3.864,-2.584 -8.188,-3.768 -12.802,-3.996 -2.521,-0.124 -5.028,-0.011 -7.514,0.441 -4.343,0.788 -8.207,2.582 -11.537,5.5 -3.229,2.83 -5.563,6.266 -7.008,10.307 -1.095,3.058 -1.531,6.225 -1.577,9.458 -0.037,2.513 0.139,5.007 0.686,7.46 0.99,4.428 2.98,8.338 6.09,11.67 2.744,2.938 6.008,5.053 9.81,6.349 2.982,1.019 6.066,1.364 9.141,1.398 z"
   id="path12"
   style="fill:#0a0a0a;fill-opacity:1" />
<path
   fill="#F6F6F6"
   d="m 288.30051,56.666875 c 0,-11.11 0,-22.22 0,-33.33 0,-0.096 -10e-4,-0.191 0.001,-0.287 0.013,-0.63 0.329,-0.958 0.954,-0.993 0.042,-0.002 0.085,-0.001 0.128,-0.001 9.527,0.001 19.056,-0.022 28.582,0.013 4.383,0.017 8.576,1.001 12.576,2.79 3.479,1.557 6.537,3.726 9.193,6.456 4.325,4.445 7.2,9.687 8.612,15.734 0.813,3.482 1.149,7.008 1.075,10.575 -0.1,4.791 -0.931,9.443 -2.747,13.895 -1.517,3.717 -3.688,7.016 -6.424,9.946 -4.2,4.499 -9.301,7.454 -15.279,8.903 -2.579,0.625 -5.192,0.902 -7.848,0.9 -9.229,-0.015 -18.46,-0.006 -27.69,-0.007 -0.156,0 -0.316,-0.011 -0.473,-0.034 -0.341,-0.056 -0.553,-0.261 -0.613,-0.6 -0.03,-0.176 -0.047,-0.357 -0.047,-0.536 0,-11.141 0,-22.283 0,-33.424 z m 9.321,25.686 c 0.159,0 0.285,0 0.411,0 6.202,0 12.405,0.006 18.607,-0.006 1.112,-0.002 2.229,-0.049 3.339,-0.136 2.305,-0.181 4.501,-0.792 6.603,-1.753 2.747,-1.258 5.054,-3.09 7.041,-5.354 1.853,-2.109 3.314,-4.455 4.394,-7.043 1.148,-2.754 1.767,-5.629 1.995,-8.6 0.209,-2.712 0.124,-5.41 -0.283,-8.096 -0.484,-3.175 -1.517,-6.168 -3.111,-8.958 -1.774,-3.101 -4.063,-5.755 -7.001,-7.807 -3.52,-2.456 -7.468,-3.599 -11.733,-3.619 -6.639,-0.032 -13.275,-0.011 -19.915,-0.012 -0.11,0 -0.224,0 -0.345,0 -0.002,17.143 -0.002,34.241 -0.002,51.384 z"
   id="path14"
   style="fill:#0a0a0a;fill-opacity:1" />
<path
   fill="#F6F6F6"
   d="m 369.50251,90.498875 c -0.263,0.633 -0.463,0.763 -1.179,0.763 -2.336,0 -4.673,10e-4 -7.01,0 -0.823,0 -1.127,-0.306 -1.127,-1.133 0,-22.306 0,-44.61 0,-66.915 0,-0.858 0.303,-1.157 1.173,-1.158 2.337,0 4.673,-0.008 7.01,0.012 0.287,0.002 0.603,0.116 0.849,0.269 0.149,0.093 0.193,0.357 0.284,0.545 0,22.54 0,45.078 0,67.617 z"
   id="path16"
   style="fill:#0a0a0a;fill-opacity:1" />
</svg>
