<svg width="124" height="38" viewBox="0 0 124 38" fill="none" xmlns="http://www.w3.org/2000/svg">
<g clip-path="url(#clip0_76_2)">
<mask id="mask0_76_2" style="mask-type:luminance" maskUnits="userSpaceOnUse" x="0" y="0" width="124" height="38">
<path d="M123.984 0H0V38H123.984V0Z" fill="white"/>
</mask>
<g mask="url(#mask0_76_2)">
<path d="M68.847 26.8969C68.2354 25.9638 67.4101 25.1901 66.4395 24.6399C67.174 24.149 67.7918 23.5029 68.2494 22.7471C68.7021 21.9954 68.9289 21.0766 68.93 19.9909C68.9416 19.0998 68.7603 18.2166 68.3984 17.4022C68.0548 16.6385 67.5513 15.9574 66.9219 15.4049C66.2602 14.8349 65.4929 14.4005 64.6635 14.1267C63.7378 13.8191 62.7674 13.6675 61.7921 13.6781H50.3401V36.9215H62.4558C63.4667 36.9343 64.4721 36.771 65.4271 36.4391C66.2755 36.1463 67.0584 35.6901 67.7316 35.0964C68.3778 34.5149 68.8881 33.7984 69.2265 32.9977C69.5897 32.1372 69.7707 31.2108 69.7581 30.2768C69.7591 28.9525 69.4554 27.8258 68.847 26.8969ZM54.6557 17.3361H61.4602C62.4558 17.3361 63.2306 17.5743 63.7847 18.0505C64.3388 18.5268 64.6154 19.2294 64.6143 20.1584C64.6143 21.0864 64.3378 21.8166 63.7847 22.3492C63.2316 22.8818 62.4568 23.1471 61.4602 23.1451H54.6557V17.3361ZM64.6635 32.3924C64.1442 32.9793 63.2977 33.2727 62.1239 33.2727H54.6557V26.797H62.1239C63.2752 26.797 64.1166 27.1232 64.6481 27.7756C65.1816 28.4376 65.4635 29.2671 65.444 30.117C65.444 31.047 65.1838 31.8024 64.6635 32.3832V32.3924Z" fill="black"/>
<path d="M41.8072 36.7218C42.9385 36.2982 43.9719 35.649 44.8446 34.8137C45.6737 34.0065 46.3238 33.0339 46.7527 31.9591C47.1999 30.8458 47.4258 29.656 47.4179 28.4562V13.6842H43.1085V28.4562C43.1194 29.2196 42.9876 29.9783 42.7198 30.6932C42.4856 31.3175 42.1186 31.8836 41.6443 32.3524C41.1657 32.8155 40.5944 33.1721 39.9682 33.3987C38.5595 33.8841 37.0289 33.8841 35.6203 33.3987C34.9936 33.1721 34.4218 32.8155 33.9426 32.3524C33.4692 31.8829 33.1025 31.317 32.8671 30.6932C32.6021 29.9761 32.4729 29.216 32.4861 28.4516V13.6842H28.1644V28.4562C28.1567 29.6558 28.3821 30.8455 28.8281 31.9591C29.2569 33.0339 29.9071 34.0065 30.7362 34.8137C31.6052 35.6462 32.633 36.2951 33.7582 36.7218C36.3606 37.6518 39.2048 37.6518 41.8072 36.7218Z" fill="black"/>
<path d="M12.8623 36.9215L18.1412 26.797C18.4485 26.2224 18.7245 25.68 18.9693 25.17C19.2141 24.6599 19.4466 24.1565 19.6668 23.6598C19.888 23.162 20.1041 22.6529 20.3151 22.1326C20.5261 21.6123 20.753 21.0648 20.9957 20.4902H21.1279C21.0828 21.1048 21.0388 21.6855 20.9957 22.2325C20.9496 22.7748 20.9174 23.3002 20.8959 23.8088C20.8744 24.3173 20.8575 24.8443 20.8452 25.3866C20.8329 25.9289 20.8283 26.5097 20.8283 27.1288V36.9215H25.1439V13.6842H20.332L15.8167 22.5136C15.5094 23.1128 15.2272 23.6664 14.9702 24.1744C14.7151 24.683 14.4724 25.1823 14.2404 25.6678C14.0084 26.1533 13.7795 26.6526 13.5598 27.1626C13.3401 27.6727 13.0989 28.2135 12.8623 28.7881C12.6185 28.2145 12.386 27.6717 12.1648 27.1596C11.9436 26.6474 11.7167 26.1491 11.4842 25.6647C11.2522 25.1792 11.0079 24.6799 10.7544 24.1713C10.5009 23.6628 10.2182 23.1097 9.90788 22.5106L5.39254 13.6842H0.580688V36.9215H4.89477V27.1288C4.89477 26.5143 4.88964 25.9336 4.8794 25.3866C4.86916 24.8397 4.85226 24.3137 4.8287 23.8088C4.80719 23.2966 4.77391 22.7712 4.72884 22.2325C4.68377 21.6937 4.63973 21.113 4.59671 20.4902H4.72884C4.95008 21.0648 5.17131 21.6123 5.39254 22.1326C5.61378 22.6529 5.83552 23.162 6.05778 23.6598C6.27748 24.1575 6.51101 24.6614 6.75375 25.17C6.9965 25.6785 7.27458 26.2224 7.58338 26.797L12.8623 36.9215Z" fill="black"/>
<path d="M76.8621 13.6842H72.5465V36.9215H76.8621V13.6842Z" fill="black"/>
<path d="M118.313 23.8165C121.124 23.8165 123.403 21.5376 123.403 18.7265C123.403 15.9154 121.124 13.6366 118.313 13.6366C115.502 13.6366 113.223 15.9154 113.223 18.7265C113.223 21.5376 115.502 23.8165 118.313 23.8165Z" fill="black"/>
<path d="M92.1012 23.8165C94.9123 23.8165 97.1912 21.5376 97.1912 18.7265C97.1912 15.9154 94.9123 13.6366 92.1012 13.6366C89.2901 13.6366 87.0113 15.9154 87.0113 18.7265C87.0113 21.5376 89.2901 23.8165 92.1012 23.8165Z" fill="black"/>
<path d="M105.208 23.8165C108.019 23.8165 110.298 21.5376 110.298 18.7265C110.298 15.9154 108.019 13.6366 105.208 13.6366C102.397 13.6366 100.118 15.9154 100.118 18.7265C100.118 21.5376 102.397 23.8165 105.208 23.8165Z" fill="black"/>
<path d="M92.1012 10.7605C94.9123 10.7605 97.1912 8.48172 97.1912 5.67063C97.1912 2.85954 94.9123 0.580688 92.1012 0.580688C89.2901 0.580688 87.0113 2.85954 87.0113 5.67063C87.0113 8.48172 89.2901 10.7605 92.1012 10.7605Z" fill="black"/>
<path d="M105.208 10.7605C108.019 10.7605 110.298 8.48172 110.298 5.67063C110.298 2.85954 108.019 0.580688 105.208 0.580688C102.397 0.580688 100.118 2.85954 100.118 5.67063C100.118 8.48172 102.397 10.7605 105.208 10.7605Z" fill="black"/>
<path d="M92.1012 36.874C94.9123 36.874 97.1912 34.5952 97.1912 31.7841C97.1912 28.973 94.9123 26.6941 92.1012 26.6941C89.2901 26.6941 87.0113 28.973 87.0113 31.7841C87.0113 34.5952 89.2901 36.874 92.1012 36.874Z" fill="black"/>
<path d="M105.208 36.874C108.019 36.874 110.298 34.5952 110.298 31.7841C110.298 28.973 108.019 26.6941 105.208 26.6941C102.397 26.6941 100.118 28.973 100.118 31.7841C100.118 34.5952 102.397 36.874 105.208 36.874Z" fill="black"/>
</g>
</g>
<defs>
<clipPath id="clip0_76_2">
<rect width="124" height="38" fill="white"/>
</clipPath>
</defs>
</svg>
