<svg id="svg" version="1.1" xmlns="http://www.w3.org/2000/svg" xmlns:xlink="http://www.w3.org/1999/xlink" width="400" height="101.14854517611026" viewBox="0, 0, 400,101.14854517611026"><g id="svgg"><path id="path0" d="M47.333 2.447 C 44.804 2.654,41.449 3.238,37.838 4.099 C 36.827 4.340,34.775 5.042,32.667 5.869 C 31.213 6.440,27.478 8.258,26.784 8.733 C 26.436 8.972,26.090 9.167,26.015 9.167 C 25.624 9.167,20.550 12.838,19.003 14.240 C 16.084 16.885,12.607 20.793,11.216 22.991 C 10.894 23.500,10.494 24.067,10.329 24.250 C 10.163 24.433,9.804 25.016,9.531 25.545 C 9.258 26.075,8.953 26.606,8.853 26.726 C 8.267 27.432,6.137 32.182,5.232 34.800 C 2.837 41.731,1.961 51.320,3.142 57.667 C 3.321 58.629,3.592 60.129,3.743 61.000 C 3.963 62.269,5.332 66.789,5.990 68.417 C 6.440 69.530,8.141 73.073,8.631 73.917 C 8.951 74.467,9.401 75.254,9.632 75.667 C 9.863 76.079,10.364 76.829,10.747 77.333 C 11.129 77.837,11.486 78.362,11.540 78.500 C 12.001 79.669,18.426 86.557,20.168 87.750 C 20.570 88.025,21.086 88.422,21.315 88.632 C 21.842 89.116,25.549 91.634,25.950 91.780 C 26.115 91.840,26.558 92.098,26.935 92.353 C 27.956 93.045,31.932 94.904,33.876 95.600 C 42.948 98.843,51.123 99.447,60.583 97.570 C 62.142 97.261,63.979 96.823,64.667 96.597 C 67.249 95.747,68.898 95.147,69.810 94.724 C 70.327 94.484,71.275 94.046,71.917 93.749 C 72.558 93.453,73.496 92.965,74.000 92.665 C 74.504 92.365,75.254 91.933,75.667 91.706 C 76.079 91.478,76.792 91.015,77.250 90.676 C 77.708 90.338,78.196 90.018,78.333 89.965 C 80.371 89.185,88.473 81.008,90.417 77.771 C 90.600 77.466,91.045 76.774,91.405 76.233 C 92.525 74.553,93.455 72.785,95.077 69.250 C 98.036 62.806,99.454 52.414,98.443 44.583 C 98.289 43.392,98.119 42.079,98.065 41.667 C 97.643 38.416,95.090 31.158,93.200 27.835 C 92.861 27.238,92.533 26.629,92.473 26.482 C 92.412 26.335,91.999 25.666,91.556 24.996 C 91.113 24.327,90.675 23.660,90.583 23.516 C 88.060 19.536,82.404 13.785,78.333 11.062 C 77.921 10.786,77.246 10.330,76.833 10.050 C 75.738 9.306,72.984 7.716,72.417 7.500 C 72.148 7.398,71.250 6.985,70.422 6.582 C 69.594 6.179,68.467 5.701,67.917 5.520 C 67.367 5.339,66.242 4.954,65.417 4.665 C 60.715 3.018,52.563 2.018,47.333 2.447 M38.562 30.863 C 39.399 31.337,40.683 32.076,41.417 32.504 C 42.150 32.931,43.087 33.468,43.500 33.695 C 43.913 33.923,45.337 34.731,46.667 35.492 C 47.996 36.252,50.658 37.774,52.583 38.875 C 54.508 39.976,56.833 41.307,57.750 41.835 C 58.667 42.362,61.104 43.749,63.167 44.916 C 65.229 46.084,67.254 47.243,67.667 47.492 C 68.079 47.741,69.467 48.533,70.750 49.251 C 73.449 50.762,73.833 51.063,73.833 51.664 C 73.833 52.380,73.934 52.317,60.167 60.158 C 52.879 64.309,46.167 68.140,45.250 68.673 C 36.899 73.527,36.862 73.544,36.241 72.922 L 35.830 72.511 35.873 51.574 L 35.917 30.637 36.310 30.319 C 36.844 29.886,36.837 29.884,38.562 30.863 " stroke="none" fill="#3c8cec" fill-rule="evenodd"></path><path id="path1" d="M285.220 29.748 C 284.819 30.029,283.914 31.608,283.194 33.286 C 282.926 33.908,282.390 35.092,282.001 35.917 C 281.612 36.742,280.853 38.373,280.314 39.542 C 279.774 40.710,278.888 42.623,278.344 43.792 C 277.800 44.960,276.891 46.929,276.324 48.167 C 275.756 49.404,275.011 51.017,274.667 51.750 C 274.323 52.483,273.574 54.096,273.004 55.333 C 271.837 57.863,270.210 61.385,269.001 64.000 C 268.556 64.962,267.736 66.725,267.179 67.917 C 265.690 71.103,265.832 71.576,268.249 71.475 C 270.187 71.393,270.035 71.582,272.491 66.208 C 273.046 64.994,273.954 63.006,274.509 61.792 C 275.065 60.577,275.796 59.021,276.134 58.333 L 276.750 57.083 285.705 57.040 L 294.660 56.997 295.185 58.037 C 295.474 58.608,295.953 59.640,296.250 60.330 C 296.812 61.634,299.502 67.533,299.792 68.095 C 299.883 68.272,300.211 68.972,300.521 69.651 C 301.245 71.241,301.638 71.499,303.338 71.499 C 305.628 71.501,305.810 70.956,304.479 68.090 C 304.009 67.078,302.765 64.412,301.715 62.167 C 299.717 57.895,298.339 54.941,297.166 52.417 C 296.783 51.592,295.944 49.792,295.303 48.417 C 294.662 47.042,293.722 45.017,293.214 43.917 C 292.706 42.817,291.902 41.092,291.428 40.083 C 290.954 39.075,290.131 37.313,289.600 36.167 C 286.586 29.671,286.180 29.076,285.220 29.748 M112.443 29.855 C 111.650 30.316,111.667 29.874,111.667 50.819 L 111.667 70.481 112.069 70.949 L 112.471 71.417 116.800 71.466 L 121.130 71.516 121.607 71.106 L 122.083 70.696 122.167 61.768 L 122.250 52.840 123.583 54.348 C 125.262 56.247,127.814 59.138,129.723 61.304 C 132.389 64.330,132.805 64.228,136.749 59.583 C 137.294 58.942,138.117 58.001,138.578 57.493 C 139.039 56.984,140.167 55.712,141.083 54.665 L 142.750 52.761 142.833 61.709 L 142.917 70.658 143.296 71.037 C 143.672 71.413,143.719 71.417,148.103 71.417 L 152.529 71.417 152.848 71.023 C 153.158 70.641,153.167 70.077,153.167 50.893 C 153.167 28.296,153.263 29.676,151.689 29.669 C 151.166 29.667,149.620 30.586,149.470 30.989 C 149.441 31.068,148.929 31.648,148.333 32.276 C 147.737 32.904,143.917 37.044,139.844 41.476 L 132.438 49.535 132.099 49.059 C 131.913 48.797,131.488 48.321,131.155 48.000 C 130.821 47.679,129.208 45.954,127.570 44.167 C 113.553 28.872,113.774 29.081,112.443 29.855 M158.109 30.638 C 157.558 31.247,157.923 32.166,159.679 34.593 C 160.007 35.046,160.420 35.660,160.596 35.958 C 160.772 36.255,162.042 38.152,163.417 40.172 C 164.792 42.192,166.179 44.251,166.500 44.747 C 166.821 45.244,167.827 46.758,168.736 48.113 C 170.723 51.075,170.722 50.443,168.746 53.341 C 166.375 56.817,164.811 59.123,164.333 59.844 C 164.104 60.191,163.242 61.458,162.417 62.661 C 161.592 63.864,160.729 65.133,160.500 65.481 C 160.271 65.829,159.537 66.930,158.869 67.928 C 157.295 70.278,157.140 70.975,158.108 71.343 C 158.703 71.569,168.153 71.546,168.810 71.316 C 169.376 71.119,169.922 70.342,174.562 63.125 C 175.078 62.323,175.918 61.031,176.430 60.254 L 177.359 58.841 178.407 60.408 C 179.487 62.024,180.793 64.014,181.081 64.483 C 181.520 65.200,184.314 69.493,184.969 70.458 C 185.646 71.456,185.927 71.500,191.536 71.498 C 199.048 71.494,198.917 71.840,194.083 64.746 C 193.350 63.670,192.487 62.395,192.167 61.913 C 191.846 61.430,190.983 60.152,190.250 59.071 C 189.517 57.991,188.842 56.994,188.750 56.855 C 188.658 56.717,187.796 55.449,186.833 54.038 C 185.871 52.626,184.978 51.275,184.850 51.036 C 184.571 50.515,184.571 50.514,186.667 47.483 C 187.446 46.356,188.308 45.085,188.583 44.657 C 188.858 44.230,189.542 43.213,190.103 42.398 C 190.663 41.583,191.978 39.642,193.025 38.083 C 194.071 36.525,195.176 34.912,195.481 34.500 C 195.785 34.087,196.079 33.637,196.132 33.500 C 196.186 33.362,196.441 32.957,196.698 32.600 C 197.199 31.905,197.330 30.897,196.967 30.533 C 196.629 30.196,186.268 30.254,185.692 30.597 C 185.280 30.842,184.750 31.593,182.111 35.670 C 180.447 38.240,179.941 39.036,179.500 39.773 C 177.850 42.531,177.634 42.742,177.240 41.981 C 177.093 41.696,176.659 40.993,176.278 40.419 C 175.896 39.845,175.133 38.647,174.583 37.757 C 174.033 36.867,173.168 35.489,172.660 34.694 C 172.153 33.900,171.541 32.912,171.301 32.500 C 170.009 30.278,170.209 30.336,163.817 30.334 C 158.765 30.333,158.366 30.355,158.109 30.638 M205.479 30.609 C 205.288 30.839,205.250 34.189,205.250 50.956 C 205.250 74.145,204.992 71.500,207.250 71.500 C 209.431 71.500,209.236 72.205,209.333 63.972 L 209.417 56.917 214.500 56.817 C 220.134 56.706,221.199 56.566,223.978 55.572 C 230.042 53.404,232.697 49.324,232.453 42.551 C 232.194 35.411,228.787 31.876,220.917 30.581 C 218.579 30.197,205.802 30.220,205.479 30.609 M238.033 30.533 C 237.880 30.687,237.833 35.428,237.833 50.857 L 237.833 70.981 238.204 71.241 C 238.530 71.469,239.914 71.500,249.852 71.500 C 263.193 71.500,261.917 71.727,261.917 69.354 C 261.917 67.033,263.007 67.264,251.619 67.167 L 241.917 67.083 241.833 48.984 C 241.764 33.979,241.711 30.837,241.521 30.609 C 241.237 30.266,238.363 30.204,238.033 30.533 M299.111 30.444 C 298.830 30.726,299.028 31.743,299.500 32.443 C 299.775 32.850,300.000 33.222,300.000 33.270 C 300.000 33.317,300.760 34.607,301.689 36.136 C 302.618 37.666,303.679 39.442,304.046 40.083 C 304.414 40.725,304.928 41.564,305.190 41.947 C 305.452 42.330,305.667 42.684,305.667 42.734 C 305.667 42.811,306.371 43.999,308.887 48.167 C 310.518 50.868,311.088 51.828,311.413 52.417 C 311.615 52.783,312.113 53.608,312.520 54.250 C 313.733 56.167,313.667 55.619,313.667 63.665 L 313.667 70.981 314.037 71.241 C 314.293 71.420,314.797 71.500,315.667 71.500 C 316.537 71.500,317.040 71.420,317.296 71.241 L 317.667 70.981 317.667 63.474 L 317.667 55.967 318.280 54.942 C 318.618 54.378,319.330 53.222,319.863 52.374 C 320.397 51.525,320.833 50.790,320.833 50.740 C 320.833 50.690,321.157 50.147,321.552 49.533 C 321.948 48.919,322.641 47.794,323.094 47.032 C 323.546 46.271,324.179 45.214,324.500 44.685 C 324.821 44.155,325.414 43.165,325.817 42.486 C 326.221 41.806,326.867 40.762,327.254 40.167 C 327.640 39.571,328.089 38.821,328.252 38.500 C 328.415 38.179,328.843 37.481,329.203 36.950 C 329.563 36.418,329.968 35.743,330.103 35.450 C 330.237 35.156,330.756 34.284,331.255 33.511 C 332.907 30.953,332.769 30.438,330.415 30.369 C 328.480 30.312,328.277 30.438,327.124 32.417 C 325.506 35.191,323.069 39.312,321.719 41.555 C 321.232 42.365,320.833 43.067,320.833 43.117 C 320.833 43.166,320.433 43.854,319.943 44.645 C 319.454 45.436,318.638 46.796,318.130 47.667 C 315.547 52.093,315.788 51.744,315.544 51.399 C 315.245 50.977,313.167 47.458,313.167 47.374 C 313.167 47.337,312.729 46.582,312.193 45.695 C 311.658 44.809,310.783 43.333,310.248 42.417 C 309.714 41.500,308.933 40.190,308.513 39.505 C 308.093 38.820,307.596 37.957,307.409 37.588 C 307.221 37.219,306.726 36.354,306.308 35.667 C 305.891 34.979,305.083 33.629,304.513 32.667 C 303.102 30.286,303.174 30.333,301.009 30.333 C 300.026 30.333,299.172 30.383,299.111 30.444 M337.839 30.656 C 337.483 31.321,337.612 70.899,337.971 71.224 C 338.423 71.633,360.047 71.648,360.630 71.241 C 360.970 71.002,361.000 70.847,361.000 69.333 C 361.000 66.945,362.027 67.167,350.961 67.167 L 341.663 67.167 341.707 60.042 L 341.750 52.917 350.139 52.833 C 359.932 52.736,359.000 52.966,359.000 50.647 C 359.000 48.471,359.864 48.667,350.280 48.664 C 345.772 48.663,341.989 48.602,341.873 48.528 C 341.708 48.424,341.672 46.903,341.706 41.489 L 341.750 34.583 351.083 34.543 C 362.054 34.496,361.000 34.731,361.000 32.327 C 361.000 30.113,362.299 30.333,349.244 30.333 C 338.310 30.333,338.007 30.342,337.839 30.656 M367.645 30.609 C 367.454 30.839,367.417 34.189,367.417 50.956 C 367.417 74.145,367.159 71.500,369.417 71.500 C 371.610 71.500,371.403 72.340,371.500 63.055 L 371.583 55.083 376.608 55.039 C 379.574 55.013,381.807 55.062,382.058 55.157 C 382.448 55.305,383.916 57.325,385.167 59.434 C 385.396 59.820,385.697 60.274,385.836 60.443 C 386.211 60.899,386.833 61.808,386.833 61.900 C 386.833 61.978,388.466 64.478,389.511 66.000 C 389.794 66.412,390.489 67.457,391.055 68.322 C 392.711 70.853,392.809 70.979,393.325 71.246 C 393.654 71.416,394.291 71.500,395.253 71.500 C 398.333 71.500,398.260 71.171,393.662 64.417 C 391.344 61.010,386.667 53.921,386.667 53.813 C 386.667 53.738,387.063 53.561,387.548 53.420 C 390.857 52.458,393.758 49.238,394.399 45.818 C 396.041 37.057,392.049 31.809,382.750 30.504 C 380.569 30.198,367.914 30.286,367.645 30.609 M219.035 34.674 C 223.475 35.123,225.910 36.461,227.363 39.250 C 229.285 42.942,228.278 47.877,225.130 50.184 C 222.531 52.088,220.547 52.500,213.985 52.500 L 209.333 52.500 209.333 43.611 C 209.333 38.722,209.383 34.672,209.444 34.611 C 209.622 34.434,217.150 34.483,219.035 34.674 M381.750 34.739 C 388.121 35.429,391.553 39.340,390.332 44.520 C 389.184 49.393,386.023 50.833,376.478 50.833 L 371.500 50.833 371.500 42.778 C 371.500 38.347,371.550 34.672,371.611 34.611 C 371.819 34.403,379.554 34.501,381.750 34.739 M287.844 42.000 C 289.474 45.577,290.792 48.434,291.766 50.500 C 292.263 51.554,292.669 52.510,292.668 52.625 C 292.667 52.788,291.155 52.833,285.667 52.833 C 281.817 52.833,278.667 52.805,278.667 52.771 C 278.667 52.664,279.343 51.155,280.272 49.191 C 280.764 48.151,281.167 47.264,281.167 47.221 C 281.167 47.177,281.579 46.281,282.083 45.228 C 282.587 44.175,283.000 43.269,283.000 43.213 C 283.000 43.158,283.412 42.258,283.917 41.213 C 284.421 40.169,284.833 39.238,284.833 39.145 C 284.833 39.052,285.035 38.633,285.280 38.213 L 285.728 37.450 286.273 38.600 C 286.573 39.233,287.280 40.762,287.844 42.000 " stroke="none" fill="#040404" fill-rule="evenodd"></path><path id="path2" d="M36.482 30.394 L 36.083 30.593 36.083 51.665 L 36.083 72.737 36.520 72.982 C 36.947 73.222,37.352 73.002,54.853 63.006 C 75.077 51.455,73.667 52.304,73.667 51.676 C 73.667 51.055,75.456 52.132,55.327 40.634 C 35.302 29.195,37.018 30.127,36.482 30.394 " stroke="none" fill="#fbfbfb" fill-rule="evenodd"></path><path id="path3" d="M36.559 30.177 C 36.362 30.250,36.141 30.409,36.068 30.530 C 35.966 30.699,35.991 30.708,36.176 30.568 C 36.804 30.091,36.917 30.118,38.792 31.191 C 39.273 31.466,39.667 31.655,39.667 31.610 C 39.667 31.523,37.582 30.295,37.167 30.138 C 37.029 30.086,36.756 30.104,36.559 30.177 M35.914 51.667 C 35.914 63.079,35.934 67.748,35.958 62.042 C 35.983 56.335,35.983 46.998,35.958 41.292 C 35.934 35.585,35.914 40.254,35.914 51.667 M39.917 31.781 C 40.008 31.874,40.533 32.197,41.083 32.500 C 41.633 32.803,42.008 32.972,41.917 32.877 C 41.825 32.781,41.300 32.458,40.750 32.158 C 40.200 31.858,39.825 31.688,39.917 31.781 M42.167 33.062 C 42.167 33.102,42.598 33.377,43.125 33.672 C 43.652 33.967,44.402 34.394,44.792 34.620 C 45.181 34.847,45.500 34.994,45.500 34.947 C 45.500 34.901,44.919 34.529,44.208 34.122 C 42.546 33.169,42.167 32.972,42.167 33.062 M45.667 35.062 C 45.667 35.102,46.098 35.377,46.625 35.672 C 47.152 35.967,47.902 36.394,48.292 36.620 C 48.681 36.847,49.000 36.994,49.000 36.947 C 49.000 36.901,48.419 36.529,47.708 36.122 C 46.046 35.169,45.667 34.972,45.667 35.062 M49.250 37.118 C 49.477 37.350,51.793 38.598,51.583 38.375 C 51.492 38.277,50.892 37.916,50.250 37.572 C 49.608 37.228,49.158 37.024,49.250 37.118 M51.833 38.559 C 51.833 38.622,52.780 39.189,54.708 40.282 C 54.777 40.321,54.833 40.318,54.833 40.274 C 54.833 40.211,53.887 39.644,51.958 38.551 C 51.890 38.512,51.833 38.516,51.833 38.559 M55.000 40.395 C 55.000 40.435,55.431 40.710,55.958 41.005 C 56.485 41.301,57.235 41.727,57.625 41.954 C 58.015 42.180,58.333 42.327,58.333 42.280 C 58.333 42.234,57.752 41.863,57.042 41.455 C 55.379 40.502,55.000 40.305,55.000 40.395 M58.500 42.396 C 58.500 42.436,58.931 42.710,59.458 43.005 C 59.985 43.301,60.735 43.727,61.125 43.954 C 61.515 44.180,61.833 44.329,61.833 44.285 C 61.833 44.200,59.950 43.064,59.042 42.601 C 58.744 42.449,58.500 42.357,58.500 42.396 M62.083 44.452 C 62.175 44.545,62.775 44.906,63.417 45.254 C 64.058 45.601,64.508 45.809,64.417 45.715 C 64.325 45.621,63.725 45.260,63.083 44.913 C 62.442 44.566,61.992 44.358,62.083 44.452 M64.750 45.956 C 64.842 46.050,66.904 47.263,69.332 48.652 C 71.761 50.040,73.636 51.068,73.499 50.936 C 73.362 50.805,71.375 49.630,69.083 48.326 C 64.264 45.585,64.532 45.731,64.750 45.956 M72.857 52.670 C 71.872 53.317,71.781 53.443,72.594 53.033 C 72.967 52.845,73.370 52.573,73.490 52.429 C 73.777 52.082,73.714 52.106,72.857 52.670 M68.500 55.187 C 66.712 56.203,65.175 57.113,65.083 57.211 C 64.902 57.404,65.122 57.284,69.125 55.007 C 71.430 53.696,72.034 53.318,71.792 53.337 C 71.769 53.338,70.287 54.171,68.500 55.187 M63.708 57.929 C 63.135 58.254,62.667 58.560,62.667 58.609 C 62.667 58.708,64.490 57.718,64.742 57.482 C 65.024 57.217,64.770 57.327,63.708 57.929 M60.917 59.524 C 59.521 60.312,58.558 60.973,59.500 60.496 C 60.877 59.799,62.763 58.636,62.458 58.672 C 62.435 58.674,61.742 59.058,60.917 59.524 M57.417 61.520 C 56.592 61.988,55.842 62.449,55.750 62.544 C 55.595 62.704,56.607 62.173,58.292 61.207 C 58.891 60.864,59.139 60.664,58.958 60.668 C 58.935 60.668,58.242 61.052,57.417 61.520 M54.375 63.262 C 53.802 63.587,53.333 63.893,53.333 63.942 C 53.333 64.041,55.157 63.051,55.408 62.815 C 55.691 62.551,55.437 62.661,54.375 63.262 M50.875 65.262 C 50.302 65.587,49.833 65.893,49.833 65.942 C 49.833 66.041,51.657 65.051,51.908 64.815 C 52.191 64.551,51.937 64.661,50.875 65.262 M47.375 67.262 C 46.802 67.587,46.333 67.891,46.333 67.939 C 46.333 68.031,48.145 67.044,48.408 66.808 C 48.702 66.546,48.422 66.669,47.375 67.262 M44.966 68.635 C 44.352 68.980,43.789 69.328,43.716 69.409 C 43.561 69.581,45.839 68.359,46.075 68.144 C 46.363 67.882,46.096 68.000,44.966 68.635 M42.125 70.262 C 41.502 70.600,41.540 70.741,42.167 70.417 C 42.442 70.274,42.667 70.123,42.667 70.079 C 42.667 69.972,42.649 69.978,42.125 70.262 M40.792 71.011 C 40.448 71.193,40.167 71.379,40.167 71.424 C 40.167 71.470,40.467 71.354,40.833 71.167 C 41.200 70.980,41.500 70.791,41.500 70.747 C 41.500 70.638,41.499 70.638,40.792 71.011 M38.083 72.580 C 37.533 72.897,37.149 73.159,37.230 73.162 C 37.403 73.168,39.167 72.175,39.167 72.071 C 39.167 71.959,39.139 71.972,38.083 72.580 " stroke="none" fill="#599df4" fill-rule="evenodd"></path><path id="path4" d="" stroke="none" fill="#50a0f0" fill-rule="evenodd"></path></g></svg>