<svg width="85" height="93" viewBox="0 0 85 93" fill="none" xmlns="http://www.w3.org/2000/svg">
<path d="M84.7154 46.4949C84.7532 49.302 84.0321 52.0673 82.6284 54.4986C81.2247 56.9299 79.1904 58.937 76.7404 60.3079L23.9264 90.7999C21.5143 92.2365 18.7589 92.9949 15.9514 92.9949C13.1439 92.9949 10.3885 92.2365 7.97642 90.7999C5.52637 89.4291 3.49202 87.422 2.08829 84.9907C0.684553 82.5594 -0.036458 79.7941 0.00141906 76.9869V16.0029C-0.0355528 13.1965 0.685888 10.4322 2.08958 8.00186C3.49326 5.5715 5.52712 3.56523 7.97642 2.19485C10.3886 0.758324 13.1439 0 15.9514 0C18.7589 0 21.5143 0.758324 23.9264 2.19485L76.7404 32.6819C79.1904 34.0527 81.2247 36.0598 82.6284 38.4911C84.0321 40.9224 84.7532 43.6877 84.7154 46.4949Z" fill="black"/>
</svg>
