<svg width="98" height="98" viewBox="0 0 98 98" fill="none" xmlns="http://www.w3.org/2000/svg">
<path d="M90 36.7H83.7C83.2 35.4 82.7 34.1 82.1 32.9L85.2 29.8C88.3 26.7 88.3 21.6 85.2 18.5L79.5 12.8C76.4 9.7 71.3 9.7 68.2 12.8L65.3 15.7C63.9 15 62.4 14.4 60.8 13.8V8C60.8 3.6 57.2 0 52.8 0H44.8C40.4 0 36.8 3.6 36.8 8V13.8C35.4 14.3 34 14.9 32.6 15.5L29.8 12.7C26.7 9.6 21.6 9.6 18.5 12.7L12.8 18.4C9.7 21.5 9.7 26.6 12.8 29.7L15.6 32.5C14.9 33.8 14.4 35.2 13.9 36.7H8C3.6 36.7 0 40.3 0 44.7V52.7C0 57.1 3.6 60.7 8 60.7H13.8C14.3 62.2 15 63.7 15.7 65.2L12.8 68.1C9.7 71.2 9.7 76.3 12.8 79.4L18.5 85.1C21.6 88.2 26.7 88.2 29.8 85.1L32.9 82C34.1 82.6 35.4 83.1 36.7 83.6V90C36.7 94.4 40.3 98 44.7 98H52.7C57.1 98 60.7 94.4 60.7 90V83.7C62.1 83.2 63.5 82.6 64.9 82L68.1 85.2C71.2 88.3 76.3 88.3 79.4 85.2L85.1 79.5C88.2 76.4 88.2 71.3 85.1 68.2L82 64.9C82.7 63.6 83.2 62.2 83.7 60.7H90C94.4 60.7 98 57.1 98 52.7V44.7C98 40.3 94.4 36.7 90 36.7ZM49 64.2C40.6 64.2 33.8 57.4 33.8 49C33.8 40.6 40.6 33.8 49 33.8C57.4 33.8 64.2 40.6 64.2 49C64.2 57.4 57.4 64.2 49 64.2Z" fill="white"/>
</svg>
