<svg width="1280" height="832" viewBox="0 0 1280 832" fill="none" xmlns="http://www.w3.org/2000/svg">
<g clip-path="url(#clip0_72_2)">
<rect width="1280" height="832" fill="#1FCCB0"/>
<circle cx="640" cy="660" r="660" fill="#1B1B1B"/>
<path d="M449.428 360.635C422.376 347.948 408.24 326.954 408.059 297.201C407.875 267.024 431.378 238.824 461.039 232.981C498.541 225.593 533.489 248.853 541.038 286.226C548.169 321.522 523.72 357.795 488.386 364.425C475.1 366.918 462.188 365.912 449.428 360.635Z" fill="#1FCCB0"/>
<path d="M675.582 270.702C683.529 268.017 691.132 268.683 698.39 272.056C702.691 274.055 704.845 278.016 705.846 282.594C706.149 283.977 705.745 284.557 704.279 284.531C701.091 284.475 697.901 284.463 694.714 284.543C693.639 284.57 693.334 284.022 692.901 283.213C690.366 278.47 681.678 277.307 677.923 281.161C676.214 282.915 676.97 286.351 679.39 287.541C682.47 289.055 685.897 289.424 689.156 290.343C692.736 291.353 696.255 292.513 699.583 294.161C708.365 298.51 710.205 309.952 703.299 316.994C694.911 325.548 677.262 326.299 668.124 318.473C665.358 316.103 663.697 313.106 663.208 309.471C662.972 307.727 663.214 306.629 665.448 306.902C667.228 307.119 669.06 307.018 670.862 306.929C673.694 306.79 676.546 306.377 677.282 310.326C677.406 310.989 678.339 311.716 679.064 312.017C683.094 313.695 687.258 314.295 691.46 312.725C695.664 311.153 696.206 307.574 692.781 304.651C691.365 303.442 689.644 302.928 687.896 302.471C683.896 301.427 679.883 300.433 675.9 299.328C667.521 297.004 663.032 289.401 665.232 281.113C666.638 275.817 670.71 272.991 675.582 270.702Z" fill="white"/>
<path d="M779.926 322.563C778.203 321.749 779.313 320.163 778.451 318.995C773.36 323.923 767.221 324.742 760.63 323.097C755.999 321.941 753.214 318.451 752.74 313.464C752.274 308.562 753.617 304.37 758.121 301.785C763.183 298.882 768.768 298.516 774.458 298.579C775.665 298.593 777.732 299.721 778.085 297.57C778.479 295.177 778.471 292.597 775.71 291.22C772.254 289.497 768.825 290.282 766.596 293.52C765.995 294.393 765.375 294.533 764.502 294.53C761.847 294.519 759.19 294.455 756.538 294.551C754.804 294.613 754.61 293.883 754.987 292.429C756.038 288.378 758.729 285.742 762.473 284.383C768.607 282.156 774.949 281.926 781.234 283.729C786.901 285.354 790.222 290.099 790.271 296.481C790.333 304.338 790.144 312.197 790.271 320.052C790.308 322.301 789.484 322.746 787.524 322.64C785.089 322.508 782.641 322.603 779.926 322.563Z" fill="white"/>
<path d="M745.017 287.156C747.369 290.109 748.305 293.309 748.295 296.805C748.274 304.452 748.101 312.101 748.26 319.744C748.311 322.247 747.521 322.915 745.225 322.639C743.863 322.475 742.445 322.455 741.09 322.642C738.31 323.025 736.865 322.1 737.382 318.525C732.469 323.602 726.788 324.4 720.727 323.506C715.404 322.72 712.253 319.463 711.334 314.123C710.406 308.727 712.638 303.847 717.185 301.462C720.933 299.495 724.975 298.815 729.169 298.886C730.23 298.904 731.3 299.029 732.348 298.925C733.646 298.796 735.585 299.698 736.102 298.28C736.773 296.439 736.482 294.282 735.122 292.562C732.749 289.56 727.225 289.51 725.155 292.793C724.143 294.398 723.11 294.564 721.608 294.536C719.591 294.498 717.556 294.367 715.558 294.565C712.665 294.851 712.53 293.382 713.358 291.361C714.709 288.066 717.082 285.596 720.427 284.439C727.23 282.085 734.125 281.835 741.002 284.279C742.54 284.826 743.815 285.744 745.017 287.156Z" fill="white"/>
<path d="M846.445 297.805C846.396 305.306 846.309 312.529 846.422 319.749C846.455 321.887 846.005 322.889 843.661 322.636C840.621 322.308 836.538 323.933 834.796 321.986C833.296 320.309 834.352 316.311 834.345 313.339C834.325 304.191 834.389 295.043 834.296 285.897C834.276 283.992 834.692 283.173 836.741 283.395C838.423 283.577 840.155 283.572 841.84 283.401C844.963 283.084 846.995 283.661 845.235 288.447C846.956 286.971 847.773 286.137 848.715 285.482C853.795 281.955 859.284 281.633 864.726 284.22C869.865 286.662 871.255 291.532 871.336 296.76C871.459 304.735 871.282 312.716 871.427 320.69C871.465 322.798 870.735 323.219 868.893 323.046C865.85 322.758 861.783 324.344 860.029 322.416C858.524 320.76 859.588 316.76 859.539 313.796C859.457 308.907 859.546 304.01 859.277 299.132C859.035 294.74 857.341 292.553 854.507 292.196C850.115 291.642 848.154 292.945 846.445 297.805Z" fill="white"/>
<path d="M638.499 282.693C648.745 282.695 654.872 286.474 657.893 294.474C661.266 303.406 659.308 313.612 652.871 319.11C646.547 324.512 639.209 325.129 631.645 322.412C624.472 319.838 620.794 314.307 619.774 306.857C619.337 303.657 619.425 300.484 620.167 297.371C622.295 288.437 628.207 283.673 638.499 282.693Z" fill="white"/>
<path d="M594.013 312.861C591.642 319.622 586.988 322.989 580.173 323.638C575.217 324.11 570.439 323.912 566.045 321.156C560.956 317.963 559.162 313.081 558.707 307.428C558.59 305.978 559.19 305.581 560.531 305.649C562.228 305.734 563.939 305.766 565.632 305.648C568.574 305.442 571.051 305.345 571.395 309.482C571.632 312.346 574.248 312.781 576.761 312.769C579.4 312.755 580.908 311.348 581.5 308.927C581.748 307.915 581.69 306.816 581.692 305.756C581.704 294.807 581.748 283.858 581.656 272.909C581.639 270.821 581.981 269.751 584.381 269.996C587.833 270.348 592.476 268.548 594.444 270.692C596.162 272.566 594.986 277.142 594.999 280.524C595.029 288.922 594.981 297.32 595.027 305.717C595.04 308.077 594.847 310.38 594.013 312.861Z" fill="white"/>
<path d="M813.767 302.198C815.323 296.531 816.916 291.141 818.225 285.682C818.675 283.805 819.488 283.274 821.261 283.402C823.059 283.532 824.873 283.43 826.68 283.431C830.394 283.432 830.404 283.435 829.303 286.846C825.724 297.932 822.058 308.992 818.622 320.122C817.978 322.207 817.047 322.892 815.064 322.618C814.542 322.546 814.002 322.607 813.471 322.607C804.486 322.607 804.51 322.599 801.835 314.163C798.637 304.077 795.394 294.007 792.012 283.435C796.061 283.435 799.812 283.47 803.563 283.42C805.369 283.396 805.173 284.912 805.447 285.876C807.27 292.294 808.981 298.745 810.745 305.18C810.965 305.985 811.278 306.764 811.636 307.816C813.185 306.153 812.901 304.087 813.767 302.198Z" fill="white"/>
<path d="M601.9 310.779C601.9 302.397 601.961 294.334 601.858 286.273C601.832 284.227 602.095 283.074 604.535 283.393C607.536 283.785 611.464 282.086 613.356 284.079C615.089 285.904 613.824 289.749 613.842 292.701C613.896 301.718 613.802 310.736 613.905 319.752C613.93 321.867 613.516 322.853 611.15 322.661C608.203 322.423 604.328 323.622 602.514 322.152C600.602 320.602 602.098 316.578 601.908 313.643C601.854 312.797 601.9 311.946 601.9 310.779Z" fill="white"/>
<path d="M610.309 277.747C605.675 278.72 602.216 277.087 601.345 273.711C600.348 269.851 601.899 267.059 605.705 265.863C609.152 264.779 613.068 266.431 614.202 269.447C615.507 272.918 614.158 275.957 610.309 277.747Z" fill="white"/>
<path d="M436.602 282.402C439.177 276.199 442.955 271.131 447.766 266.805C450.685 264.18 451.742 264.35 453.49 267.745C462.772 285.78 468.607 304.844 470.633 325.05C470.675 325.472 470.699 325.911 470.838 326.304C471.166 327.231 470.703 328.716 472.137 328.896C473.484 329.065 473.789 327.754 474.149 326.787C477.647 317.402 480.086 307.751 481.409 297.817C483.061 285.415 482.96 273.045 480.96 260.684C480.503 257.864 481.778 256.964 485.257 257.947C497.984 261.544 507.564 269.028 513.306 281.117C513.488 281.5 513.656 281.89 513.817 282.282C516.23 288.16 516.183 288.072 510.561 291.036C491.823 300.915 479.866 316.119 474.911 336.761C473.976 340.657 473.312 341.048 470.156 340.268C467.894 339.708 468.217 337.965 468.123 336.493C467.315 323.86 463.099 312.462 455.797 302.178C451.19 295.688 445.42 290.394 438.861 285.922C437.703 285.132 435.985 284.649 436.602 282.402Z" fill="#FCFEFE"/>
<path d="M480.973 340.246C480.292 340.357 479.876 340.453 479.456 340.51C478.188 340.683 476.78 341.008 476.087 339.538C475.41 338.106 476.54 337.158 477.378 336.229C479.873 333.464 482.545 330.888 485.502 328.61C491.978 323.622 499.186 320.11 507.055 317.965C508.411 317.595 510.134 316.716 511.164 318.254C512.141 319.713 510.904 321.086 510.094 322.299C503.192 332.636 493.343 338.247 480.973 340.246Z" fill="#FAFEFD"/>
<path d="M440.982 321.253C441.749 320.276 442.567 320.297 443.422 320.568C452.075 323.306 459.884 327.305 465.018 335.215C465.726 336.305 467.031 337.504 465.823 338.884C464.787 340.067 463.427 339.192 462.264 338.811C454.299 336.205 447.705 331.598 442.532 325.012C441.732 323.993 440.465 323.078 440.982 321.253Z" fill="#F9FEFD"/>
<path d="M769.668 305.681C770.898 305.626 771.853 305.527 772.796 305.587C774.499 305.695 776.744 304.186 777.747 306.515C778.767 308.884 777.209 312.951 775.069 314.119C772.884 315.311 770.456 315.694 768.032 314.944C766.076 314.339 764.734 313.005 764.699 310.816C764.649 307.679 766.759 306.434 769.668 305.681Z" fill="#1B1B1B"/>
<path d="M735.439 305.421C737.062 308.368 736.566 311.165 734.488 313.35C732.431 315.512 729.509 315.639 726.739 314.987C724.765 314.523 723.354 313.172 723.213 310.969C723.075 308.822 724.097 307.277 726.021 306.396C728.932 305.064 732.083 305.67 735.439 305.421Z" fill="#1B1B1B"/>
<path d="M646.025 294.992C648.229 299.594 648.553 304.162 647.338 308.813C646.356 312.573 643.463 314.9 640.123 314.867C636.936 314.835 633.852 312.24 633.038 308.646C632.075 304.391 631.276 300.045 633.532 295.95C636.527 290.517 641.8 290.07 646.025 294.992Z" fill="#1B1B1B"/>
</g>
<defs>
<clipPath id="clip0_72_2">
<rect width="1280" height="832" fill="white"/>
</clipPath>
</defs>
</svg>
