<svg width="1280" height="832" viewBox="0 0 1280 832" fill="none" xmlns="http://www.w3.org/2000/svg">
<g clip-path="url(#clip0_58_48)">
<rect width="1280" height="832" fill="#1ED760"/>
<circle cx="640" cy="660" r="660" fill="#1B1B1B"/>
<g clip-path="url(#clip1_58_48)">
<path d="M479.509 239C441.375 239 410.458 269.915 410.458 308.05C410.458 346.186 441.375 377.099 479.509 377.099C517.648 377.099 548.561 346.186 548.561 308.05C548.561 269.917 517.648 239.003 479.509 239.003L479.509 239ZM511.176 338.59C509.939 340.618 507.284 341.262 505.255 340.016C489.043 330.114 468.633 327.871 444.598 333.362C442.281 333.89 439.973 332.439 439.445 330.122C438.915 327.805 440.36 325.496 442.682 324.968C468.986 318.959 491.548 321.546 509.749 332.67C511.778 333.915 512.421 336.562 511.176 338.59ZM519.627 319.789C518.069 322.321 514.754 323.121 512.223 321.563C493.662 310.154 465.369 306.85 443.415 313.514C440.568 314.374 437.561 312.77 436.697 309.927C435.839 307.08 437.445 304.079 440.287 303.213C465.364 295.604 496.54 299.29 517.854 312.388C520.386 313.946 521.186 317.26 519.627 319.789ZM520.353 300.21C498.098 286.992 461.381 285.776 440.133 292.225C436.721 293.26 433.112 291.334 432.078 287.922C431.044 284.508 432.969 280.902 436.383 279.865C460.775 272.461 501.322 273.891 526.944 289.102C530.02 290.923 531.026 294.887 529.204 297.952C527.39 301.021 523.415 302.032 520.356 300.21H520.353ZM598.323 302.743C586.4 299.9 584.281 297.905 584.281 293.712C584.281 289.751 588.008 287.085 593.557 287.085C598.933 287.085 604.26 289.109 609.85 293.276C610.015 293.403 610.23 293.453 610.436 293.42C610.65 293.388 610.831 293.274 610.955 293.102L616.777 284.896C617.016 284.558 616.95 284.092 616.628 283.834C609.974 278.496 602.487 275.902 593.73 275.902C580.859 275.902 571.863 283.627 571.863 294.68C571.863 306.533 579.622 310.73 593.029 313.969C604.433 316.597 606.363 318.799 606.363 322.734C606.363 327.096 602.47 329.808 596.204 329.808C589.245 329.808 583.564 327.458 577.214 321.967C577.058 321.827 576.843 321.769 576.645 321.777C576.431 321.794 576.241 321.893 576.109 322.049L569.579 329.817C569.307 330.146 569.34 330.625 569.653 330.905C577.041 337.502 586.128 340.981 595.94 340.981C609.809 340.981 618.772 333.403 618.772 321.67C618.797 311.77 612.868 306.286 598.348 302.754L598.323 302.743ZM650.155 290.985C644.143 290.985 639.213 293.353 635.139 298.206V292.744C635.139 292.313 634.793 291.961 634.364 291.961H623.686C623.258 291.961 622.911 292.313 622.911 292.744V353.432C622.911 353.861 623.258 354.215 623.686 354.215H634.364C634.793 354.215 635.139 353.861 635.139 353.432V334.278C639.213 338.837 644.143 341.072 650.155 341.072C661.327 341.072 672.64 332.472 672.64 316.031C672.657 299.587 661.344 290.984 650.163 290.984L650.155 290.985ZM660.222 316.031C660.222 324.399 655.069 330.245 647.681 330.245C640.384 330.245 634.875 324.135 634.875 316.031C634.875 307.926 640.384 301.817 647.681 301.817C654.945 301.816 660.222 307.794 660.222 316.031ZM701.624 290.985C687.235 290.985 675.963 302.064 675.963 316.21C675.963 330.204 687.161 341.163 701.45 341.163C715.887 341.163 727.192 330.122 727.192 316.031C727.192 301.988 715.964 290.985 701.624 290.985ZM701.624 330.328C693.972 330.328 688.2 324.177 688.2 316.027C688.2 307.84 693.774 301.899 701.45 301.899C709.152 301.899 714.957 308.048 714.957 316.206C714.957 324.391 709.35 330.328 701.624 330.328ZM757.914 291.961H746.167V279.951C746.167 279.52 745.82 279.169 745.389 279.169H734.711C734.284 279.169 733.931 279.52 733.931 279.951V291.961H728.802C728.372 291.961 728.025 292.313 728.025 292.744V301.919C728.025 302.349 728.372 302.701 728.802 302.701H733.931V326.444C733.931 336.034 738.703 340.899 748.127 340.899C751.953 340.899 755.13 340.107 758.123 338.408C758.369 338.277 758.517 338.013 758.517 337.732V328.992C758.517 328.728 758.378 328.473 758.148 328.333C757.914 328.184 757.629 328.176 757.389 328.299C755.336 329.33 753.348 329.808 751.12 329.808C747.7 329.808 746.167 328.25 746.167 324.77V302.705H757.914C758.345 302.705 758.692 302.354 758.692 301.923V292.749C758.707 292.318 758.36 291.966 757.924 291.966L757.914 291.961ZM798.848 292.008V290.533C798.848 286.193 800.513 284.258 804.241 284.258C806.465 284.258 808.254 284.7 810.257 285.368C810.506 285.445 810.761 285.407 810.961 285.259C811.167 285.112 811.281 284.875 811.281 284.624V275.628C811.281 275.284 811.065 274.98 810.727 274.879C808.616 274.25 805.912 273.604 801.856 273.604C792.002 273.604 786.784 279.157 786.784 289.656V291.915H781.655C781.225 291.915 780.872 292.266 780.872 292.697V301.919C780.872 302.349 781.225 302.701 781.655 302.701H786.784V339.316C786.784 339.753 787.137 340.099 787.567 340.099H798.236C798.673 340.099 799.02 339.753 799.02 339.316V302.704H808.988L824.26 339.316C822.527 343.158 820.822 343.925 818.496 343.925C816.615 343.925 814.63 343.364 812.608 342.251C812.421 342.152 812.187 342.136 811.99 342.193C811.785 342.267 811.612 342.416 811.529 342.614L807.91 350.554C807.735 350.934 807.885 351.371 808.248 351.569C812.024 353.614 815.429 354.487 819.642 354.487C827.524 354.487 831.887 350.81 835.722 340.932L854.242 293.077C854.34 292.836 854.307 292.564 854.159 292.35C854.018 292.138 853.778 292.011 853.523 292.011H842.409C842.07 292.011 841.772 292.223 841.665 292.535L830.28 325.051L817.81 292.514C817.697 292.211 817.408 292.011 817.085 292.011L798.848 292.008ZM775.116 291.961H764.438C764.008 291.961 763.655 292.313 763.655 292.744V339.316C763.655 339.753 764.008 340.099 764.438 340.099H775.116C775.546 340.099 775.9 339.753 775.9 339.316V292.747C775.9 292.316 775.553 291.965 775.116 291.965V291.961ZM769.84 270.755C765.609 270.755 762.18 274.178 762.18 278.407C762.18 282.639 765.609 286.067 769.84 286.067C774.068 286.067 777.492 282.639 777.492 278.407C777.492 274.179 774.062 270.755 769.84 270.755ZM863.359 306.936C859.137 306.936 855.849 303.543 855.849 299.423C855.849 295.302 859.18 291.87 863.402 291.87C867.624 291.87 870.912 295.263 870.912 299.38C870.912 303.5 867.581 306.936 863.359 306.936ZM863.402 292.618C859.552 292.618 856.639 295.677 856.639 299.423C856.639 303.167 859.534 306.185 863.359 306.185C867.21 306.185 870.123 303.128 870.123 299.38C870.123 295.635 867.228 292.618 863.402 292.618ZM865.068 300.152L867.194 303.128H865.397L863.485 300.398H861.844V303.128H860.342V295.241H863.854C865.695 295.241 866.896 296.179 866.896 297.757C866.905 299.05 866.156 299.84 865.074 300.152H865.068ZM863.799 296.594H861.844V299.089H863.799C864.77 299.089 865.357 298.611 865.357 297.84C865.357 297.029 864.77 296.594 863.799 296.594Z" fill="#1ED760"/>
</g>
</g>
<defs>
<clipPath id="clip0_58_48">
<rect width="1280" height="832" fill="white"/>
</clipPath>
<clipPath id="clip1_58_48">
<rect width="464" height="138.278" fill="white" transform="translate(408 239)"/>
</clipPath>
</defs>
</svg>
