<svg width="1280" height="832" viewBox="0 0 1280 832" fill="none" xmlns="http://www.w3.org/2000/svg">
<g clip-path="url(#clip0_72_87)">
<rect width="1280" height="832" fill="#EBAF00"/>
<circle cx="640" cy="660" r="660" fill="#1B1B1B"/>
<g clip-path="url(#clip1_72_87)">
<path d="M484.184 225.249C465.686 225.249 453.773 230.578 443.741 243.119V229.324H408V399.249C408 399.249 408.627 399.562 410.508 399.876C413.016 400.503 426.184 403.324 435.903 395.173C444.368 387.962 446.249 379.497 446.249 370.092V345.638C456.595 356.611 468.195 361.314 484.497 361.314C519.611 361.314 546.573 332.784 546.573 294.849C546.573 253.778 520.551 225.249 484.184 225.249ZM477.286 329.022C457.535 329.022 441.859 312.719 441.859 292.968C441.859 273.53 460.357 257.854 477.286 257.854C497.351 257.854 512.714 273.216 512.714 293.281C512.714 313.346 497.038 329.022 477.286 329.022Z" fill="white"/>
<path d="M597.362 290.773C597.362 305.508 598.929 323.378 613.351 342.816C613.664 343.13 614.292 344.07 614.292 344.07C608.335 354.103 601.124 361 591.405 361C583.881 361 576.356 356.924 570.086 350.027C563.502 342.503 560.367 332.784 560.367 322.438V187H597.048L597.362 290.773Z" fill="white"/>
<path d="M777.632 293.281L734.367 229.324H778.886L821.837 293.281L778.886 356.924H734.367L777.632 293.281Z" fill="#EBAF00"/>
<path d="M833.438 286.07L872 229.324H827.481L811.492 252.838L833.438 286.07Z" fill="white"/>
<path d="M811.492 333.724L819.016 344.07C826.227 355.357 835.633 361 846.606 361C858.206 360.686 866.357 350.654 869.492 346.892C869.492 346.892 863.849 341.876 856.638 333.411C846.919 322.124 834.065 301.432 833.752 300.492L811.492 333.724Z" fill="white"/>
<path d="M701.449 320.243C693.925 327.141 688.908 330.903 678.562 330.903C660.065 330.903 649.406 317.735 647.838 303.314H745.968C746.595 301.432 746.908 298.924 746.908 294.849C746.908 255.032 717.752 225.249 679.503 225.249C643.135 225.249 613.352 255.659 613.352 293.595C613.352 331.216 643.135 361 680.443 361C706.465 361 729.038 346.265 741.265 320.243H701.449ZM679.816 255.346C696.119 255.346 708.346 266.005 711.168 280.114H649.092C652.227 265.378 663.827 255.346 679.816 255.346Z" fill="white"/>
</g>
</g>
<defs>
<clipPath id="clip0_72_87">
<rect width="1280" height="832" fill="white"/>
</clipPath>
<clipPath id="clip1_72_87">
<rect width="464" height="213.856" fill="white" transform="translate(408 187)"/>
</clipPath>
</defs>
</svg>
