<svg width="1280" height="832" viewBox="0 0 1280 832" fill="none" xmlns="http://www.w3.org/2000/svg">
<g clip-path="url(#clip0_59_66)">
<rect width="1280" height="832" fill="#FF0000"/>
<circle cx="640" cy="660" r="660" fill="#1B1B1B"/>
<g clip-path="url(#clip1_59_66)">
<path d="M478.644 378.2C517.66 378.2 549.288 347.039 549.288 308.6C549.288 270.161 517.66 239 478.644 239C439.628 239 408 270.161 408 308.6C408 347.039 439.628 378.2 478.644 378.2Z" fill="#FF0000"/>
<path d="M478.644 350.36C502.054 350.36 521.031 331.663 521.031 308.6C521.031 285.537 502.054 266.84 478.644 266.84C455.235 266.84 436.258 285.537 436.258 308.6C436.258 331.663 455.235 350.36 478.644 350.36Z" fill="#FF0000" stroke="white" stroke-width="1.2"/>
<path d="M464.515 329.161L501.212 308.606L464.515 288.039V329.161ZM625.111 294.924C621.753 311.471 619.201 331.672 617.861 340.013H616.916C615.831 331.417 613.279 311.349 609.799 295.063L601.198 254.527H574.982V363.857H591.239V273.725L592.846 282.14L609.376 363.839H625.639L641.897 282.14L643.637 273.678V363.851H659.9V254.521H633.434L625.111 294.924ZM703.858 347.437C702.373 350.435 699.16 352.518 695.924 352.518C692.165 352.518 690.68 349.652 690.68 342.623V283.973H672.132V343.655C672.132 358.387 677.097 365.15 688.128 365.15C695.645 365.15 701.689 361.89 705.865 354.078H706.271L707.877 363.845H722.389V283.979H703.841V347.431L703.858 347.437ZM758.274 315.502C752.224 311.198 748.466 308.333 748.466 302.081C748.466 297.655 750.612 295.179 755.716 295.179C760.965 295.179 762.711 298.688 762.832 310.688L778.429 310.044C779.635 290.637 773.046 282.552 755.983 282.552C740.131 282.552 732.33 289.454 732.33 303.653C732.33 316.552 738.786 322.416 749.266 330.112C758.274 336.892 763.517 340.668 763.517 346.143C763.517 350.319 760.826 353.179 756.122 353.179C750.612 353.179 747.381 348.092 748.205 339.23L732.487 339.485C730.057 356.027 736.93 365.672 755.194 365.672C771.19 365.672 779.525 358.503 779.525 344.177C779.507 331.145 772.797 325.925 758.274 315.502ZM807.458 283.973H789.715V363.839H807.463V283.979L807.458 283.973ZM798.717 252.433C791.873 252.433 788.637 254.909 788.637 263.517C788.637 272.379 791.85 274.589 798.723 274.589C805.712 274.589 808.803 272.367 808.803 263.517C808.803 255.315 805.712 252.433 798.717 252.433ZM867.116 335.048L850.859 334.265C850.859 348.336 849.252 352.895 843.748 352.895C838.238 352.895 837.293 347.808 837.293 331.261V315.775C837.293 299.738 838.377 294.668 843.887 294.668C848.991 294.668 850.337 299.482 850.337 314.348L866.449 313.315C867.534 300.938 865.91 292.464 860.945 287.65C857.309 284.124 851.804 282.448 844.148 282.448C826.145 282.448 818.75 291.832 818.75 318.141V329.347C818.75 356.45 825.061 365.179 843.481 365.179C851.277 365.179 856.647 363.613 860.278 360.226C865.51 355.505 867.517 347.437 867.116 335.048Z" fill="white"/>
<path d="M464.515 329.161L501.212 308.606L464.515 288.039V329.161Z" fill="white"/>
</g>
</g>
<defs>
<clipPath id="clip0_59_66">
<rect width="1280" height="832" fill="white"/>
</clipPath>
<clipPath id="clip1_59_66">
<rect width="464" height="139.2" fill="white" transform="translate(408 239)"/>
</clipPath>
</defs>
</svg>
