<svg width="1280" height="832" viewBox="0 0 1280 832" fill="none" xmlns="http://www.w3.org/2000/svg">
<g clip-path="url(#clip0_72_124)">
<rect width="1280" height="832" fill="#3C8CEC"/>
<circle cx="640" cy="660" r="660" fill="#1B1B1B"/>
<path fill-rule="evenodd" clip-rule="evenodd" d="M462.906 239.839C459.973 240.079 456.081 240.756 451.892 241.755C450.719 242.034 448.339 242.849 445.894 243.808C444.207 244.47 439.874 246.579 439.069 247.13C438.666 247.408 438.264 247.634 438.177 247.634C437.724 247.634 431.838 251.892 430.043 253.518C426.657 256.587 422.624 261.12 421.01 263.67C420.637 264.26 420.173 264.918 419.982 265.13C419.789 265.342 419.373 266.019 419.056 266.632C418.739 267.247 418.385 267.863 418.269 268.002C417.59 268.821 415.119 274.331 414.069 277.368C411.291 285.408 410.275 296.531 411.645 303.894C411.852 305.01 412.167 306.75 412.342 307.76C412.597 309.232 414.185 314.475 414.948 316.364C415.47 317.655 417.443 321.765 418.012 322.744C418.383 323.382 418.905 324.295 419.173 324.774C419.441 325.252 420.022 326.122 420.466 326.706C420.91 327.291 421.324 327.9 421.386 328.06C421.921 329.416 429.374 337.406 431.395 338.79C431.861 339.109 432.46 339.57 432.725 339.813C433.337 340.375 437.637 343.295 438.102 343.465C438.293 343.534 438.807 343.834 439.245 344.129C440.429 344.932 445.041 347.089 447.296 347.896C457.82 351.658 467.303 352.359 478.276 350.181C480.085 349.823 482.216 349.315 483.014 349.053C486.009 348.067 487.922 347.371 488.98 346.88C489.579 346.601 490.679 346.093 491.424 345.749C492.167 345.405 493.255 344.839 493.84 344.491C494.425 344.143 495.295 343.642 495.774 343.379C496.252 343.114 497.079 342.577 497.61 342.184C498.141 341.792 498.707 341.421 498.866 341.359C501.23 340.455 510.629 330.969 512.884 327.214C513.096 326.861 513.612 326.058 514.03 325.43C515.329 323.481 516.408 321.431 518.289 317.33C521.722 309.855 523.367 297.8 522.194 288.716C522.015 287.335 521.818 285.812 521.755 285.334C521.266 281.563 518.304 273.143 516.112 269.289C515.719 268.596 515.338 267.89 515.269 267.719C515.198 267.549 514.719 266.773 514.205 265.995C513.691 265.219 513.183 264.446 513.076 264.279C510.15 259.662 503.589 252.991 498.866 249.832C498.388 249.512 497.605 248.983 497.126 248.658C495.856 247.795 492.661 245.951 492.004 245.7C491.692 245.582 490.65 245.103 489.689 244.635C488.729 244.168 487.422 243.613 486.784 243.403C486.146 243.193 484.841 242.747 483.884 242.411C478.429 240.501 468.973 239.341 462.906 239.839ZM452.732 272.801C453.703 273.351 455.192 274.208 456.044 274.705C456.894 275.2 457.981 275.823 458.46 276.086C458.939 276.351 460.591 277.288 462.134 278.171C463.675 279.052 466.763 280.818 468.996 282.095C471.229 283.372 473.926 284.916 474.99 285.529C476.054 286.14 478.881 287.749 481.274 289.103C483.666 290.457 486.015 291.802 486.494 292.091C486.972 292.38 488.582 293.298 490.07 294.131C493.201 295.884 493.646 296.233 493.646 296.93C493.646 297.761 493.763 297.688 477.794 306.783C469.34 311.598 461.554 316.042 460.49 316.661C450.803 322.291 450.76 322.311 450.039 321.59L449.563 321.113L449.613 296.826L449.664 272.539L450.12 272.17C450.739 271.668 450.731 271.665 452.732 272.801Z" fill="#3C8CEC"/>
<path fill-rule="evenodd" clip-rule="evenodd" d="M738.855 271.508C738.39 271.834 737.34 273.665 736.505 275.612C736.194 276.333 735.572 277.707 735.121 278.664C734.669 279.621 733.789 281.513 733.164 282.869C732.537 284.224 731.51 286.443 730.879 287.799C730.248 289.154 729.193 291.438 728.535 292.874C727.876 294.309 727.012 296.18 726.613 297.03C726.214 297.88 725.345 299.751 724.684 301.186C723.33 304.121 721.443 308.207 720.041 311.24C719.524 312.356 718.573 314.401 717.927 315.784C716.2 319.479 716.365 320.028 719.168 319.911C721.416 319.816 721.24 320.035 724.089 313.801C724.733 312.393 725.786 310.087 726.43 308.679C727.075 307.269 727.923 305.464 728.315 304.666L729.03 303.216L739.417 303.166L749.805 303.117L750.414 304.323C750.749 304.985 751.305 306.182 751.65 306.983C752.301 308.495 755.422 315.338 755.758 315.99C755.864 316.196 756.244 317.008 756.604 317.795C757.444 319.64 757.9 319.939 759.872 319.939C762.528 319.941 762.739 319.309 761.195 315.984C760.65 314.81 759.207 311.718 757.989 309.114C755.671 304.158 754.073 300.732 752.712 297.804C752.268 296.847 751.295 294.759 750.551 293.164C749.807 291.569 748.717 289.22 748.128 287.944C747.538 286.668 746.606 284.667 746.056 283.496C745.506 282.327 744.551 280.283 743.936 278.954C740.439 271.418 739.968 270.728 738.855 271.508ZM538.433 271.632C537.514 272.167 537.533 271.654 537.533 295.95V318.758L538 319.301L538.466 319.844L543.488 319.901L548.51 319.959L549.064 319.483L549.616 319.007L549.713 308.651L549.81 298.294L551.356 300.044C553.303 302.247 556.264 305.6 558.478 308.113C561.571 311.623 562.053 311.504 566.628 306.116C567.261 305.373 568.215 304.281 568.75 303.692C569.285 303.101 570.593 301.626 571.656 300.411L573.59 298.203L573.686 308.582L573.783 318.963L574.223 319.403C574.659 319.839 574.714 319.844 579.799 319.844H584.933L585.303 319.387C585.663 318.944 585.673 318.289 585.673 296.036C585.673 269.823 585.785 271.424 583.959 271.416C583.352 271.414 581.559 272.48 581.385 272.947C581.351 273.039 580.757 273.712 580.066 274.44C579.374 275.169 574.943 279.971 570.219 285.112L561.628 294.461L561.234 293.908C561.019 293.605 560.526 293.052 560.139 292.68C559.752 292.308 557.881 290.307 555.981 288.234C539.721 270.492 539.977 270.734 538.433 271.632ZM591.406 272.54C590.767 273.247 591.19 274.313 593.227 277.128C593.608 277.653 594.087 278.366 594.291 278.711C594.495 279.056 595.968 281.256 597.563 283.6C599.158 285.943 600.767 288.331 601.14 288.907C601.512 289.483 602.679 291.239 603.733 292.811C606.038 296.247 606.037 295.514 603.745 298.876C600.995 302.908 599.18 305.583 598.626 306.419C598.36 306.822 597.36 308.291 596.403 309.687C595.446 311.082 594.445 312.554 594.18 312.958C593.914 313.362 593.062 314.639 592.288 315.796C590.462 318.522 590.282 319.331 591.405 319.758C592.095 320.02 603.057 319.993 603.819 319.727C604.476 319.498 605.109 318.597 610.491 310.225C611.09 309.295 612.064 307.796 612.658 306.895L613.736 305.256L614.952 307.073C616.204 308.948 617.719 311.256 618.053 311.8C618.563 312.632 621.804 317.612 622.564 318.731C623.349 319.889 623.675 319.94 630.181 319.938C638.895 319.933 638.743 320.334 633.136 312.105C632.286 310.857 631.284 309.378 630.913 308.819C630.541 308.259 629.54 306.776 628.69 305.522C627.839 304.27 627.056 303.113 626.95 302.952C626.843 302.792 625.843 301.321 624.726 299.684C623.61 298.046 622.574 296.479 622.426 296.202C622.102 295.597 622.102 295.596 624.533 292.08C625.437 290.773 626.437 289.299 626.756 288.802C627.075 288.307 627.868 287.127 628.519 286.182C629.169 285.236 630.694 282.985 631.909 281.176C633.122 279.369 634.404 277.498 634.757 277.02C635.11 276.541 635.451 276.019 635.513 275.86C635.575 275.7 635.871 275.23 636.169 274.816C636.75 274.01 636.902 272.841 636.481 272.418C636.089 272.027 624.07 272.095 623.402 272.493C622.924 272.777 622.31 273.648 619.248 278.377C617.318 281.358 616.731 282.282 616.22 283.137C614.306 286.336 614.055 286.581 613.598 285.698C613.427 285.367 612.924 284.552 612.482 283.886C612.039 283.22 611.154 281.831 610.516 280.798C609.878 279.766 608.874 278.167 608.285 277.245C607.697 276.324 606.987 275.178 606.709 274.7C605.21 272.122 605.442 272.19 598.027 272.187C592.167 272.186 591.704 272.212 591.406 272.54ZM646.355 272.506C646.134 272.773 646.09 276.659 646.09 296.109C646.09 323.008 645.79 319.94 648.41 319.94C650.939 319.94 650.713 320.758 650.826 311.208L650.923 303.024L656.82 302.908C663.355 302.779 664.59 302.617 667.814 301.464C674.848 298.949 677.928 294.216 677.645 286.359C677.345 278.077 673.392 273.976 664.263 272.474C661.551 272.029 646.73 272.055 646.355 272.506ZM684.118 272.418C683.94 272.597 683.886 278.096 683.886 295.994V319.338L684.316 319.64C684.694 319.904 686.3 319.94 697.828 319.94C713.303 319.94 711.823 320.203 711.823 317.451C711.823 314.758 713.088 315.026 699.878 314.914L688.623 314.816L688.526 293.821C688.446 276.416 688.384 272.771 688.164 272.506C687.834 272.109 684.501 272.037 684.118 272.418ZM754.968 272.315C754.642 272.642 754.872 273.822 755.42 274.634C755.739 275.106 756 275.538 756 275.593C756 275.648 756.881 277.144 757.959 278.918C759.036 280.693 760.267 282.753 760.693 283.496C761.12 284.241 761.716 285.214 762.02 285.659C762.324 286.103 762.573 286.513 762.573 286.571C762.573 286.661 763.39 288.039 766.308 292.874C768.2 296.007 768.862 297.12 769.239 297.804C769.473 298.228 770.051 299.185 770.523 299.93C771.93 302.154 771.853 301.518 771.853 310.851V319.338L772.282 319.64C772.579 319.847 773.164 319.94 774.173 319.94C775.182 319.94 775.766 319.847 776.063 319.64L776.493 319.338V310.63V301.922L777.204 300.733C777.596 300.078 778.422 298.738 779.041 297.754C779.66 296.769 780.166 295.916 780.166 295.858C780.166 295.8 780.542 295.171 781 294.458C781.459 293.746 782.263 292.441 782.789 291.557C783.313 290.674 784.047 289.448 784.42 288.835C784.792 288.22 785.48 287.071 785.947 286.284C786.416 285.495 787.165 284.284 787.614 283.594C788.062 282.902 788.583 282.032 788.772 281.66C788.961 281.288 789.457 280.478 789.875 279.862C790.293 279.245 790.762 278.462 790.919 278.122C791.074 277.781 791.676 276.769 792.255 275.873C794.172 272.905 794.012 272.308 791.281 272.228C789.036 272.162 788.801 272.308 787.463 274.604C785.586 277.822 782.76 282.602 781.194 285.204C780.629 286.143 780.166 286.958 780.166 287.016C780.166 287.073 779.702 287.871 779.133 288.788C778.566 289.706 777.62 291.283 777.03 292.294C774.034 297.428 774.314 297.023 774.031 296.623C773.684 296.133 771.273 292.051 771.273 291.954C771.273 291.911 770.765 291.035 770.143 290.006C769.523 288.978 768.508 287.266 767.887 286.204C767.268 285.14 766.362 283.62 765.875 282.826C765.387 282.031 764.811 281.03 764.594 280.602C764.376 280.174 763.802 279.171 763.317 278.374C762.833 277.576 761.896 276.01 761.235 274.894C759.598 272.132 759.681 272.186 757.17 272.186C756.03 272.186 755.039 272.244 754.968 272.315ZM799.893 272.561C799.48 273.332 799.629 319.243 800.046 319.62C800.57 320.094 825.654 320.112 826.33 319.64C826.725 319.362 826.76 319.183 826.76 317.426C826.76 314.656 827.951 314.914 815.114 314.914H804.329L804.38 306.649L804.43 298.384L814.161 298.286C825.521 298.174 824.44 298.441 824.44 295.751C824.44 293.226 825.442 293.454 814.324 293.45C809.095 293.449 804.707 293.378 804.572 293.292C804.381 293.172 804.339 291.407 804.378 285.127L804.43 277.116L815.256 277.07C827.982 277.015 826.76 277.288 826.76 274.499C826.76 271.931 828.266 272.186 813.123 272.186C800.439 272.186 800.088 272.197 799.893 272.561ZM834.468 272.506C834.246 272.773 834.203 276.659 834.203 296.109C834.203 323.008 833.904 319.94 836.523 319.94C839.067 319.94 838.827 320.914 838.94 310.144L839.036 300.896L844.865 300.845C848.305 300.815 850.896 300.872 851.187 300.982C851.639 301.154 853.342 303.497 854.793 305.943C855.059 306.391 855.408 306.918 855.569 307.114C856.004 307.643 856.726 308.697 856.726 308.804C856.726 308.894 858.62 311.794 859.832 313.56C860.161 314.038 860.967 315.25 861.623 316.254C863.544 319.189 863.658 319.336 864.257 319.645C864.638 319.843 865.377 319.94 866.493 319.94C870.066 319.94 869.981 319.558 864.647 311.724C861.959 307.772 856.533 299.548 856.533 299.423C856.533 299.336 856.993 299.131 857.555 298.967C861.394 297.851 864.759 294.116 865.502 290.149C867.407 279.986 862.776 273.898 851.99 272.385C849.46 272.03 834.78 272.132 834.468 272.506ZM662.08 277.222C667.231 277.743 670.055 279.295 671.741 282.53C673.97 286.813 672.802 292.537 669.15 295.213C666.135 297.422 663.834 297.9 656.222 297.9H650.826V287.589C650.826 281.918 650.884 277.22 650.955 277.149C651.161 276.943 659.894 277 662.08 277.222ZM850.83 277.297C858.22 278.098 862.201 282.634 860.785 288.643C859.453 294.296 855.786 295.966 844.714 295.966H838.94V286.622C838.94 281.483 838.998 277.22 839.068 277.149C839.31 276.907 848.282 277.021 850.83 277.297ZM741.899 285.72C743.789 289.869 745.318 293.183 746.448 295.58C747.025 296.803 747.496 297.912 747.494 298.045C747.493 298.234 745.739 298.286 739.373 298.286C734.907 298.286 731.253 298.254 731.253 298.214C731.253 298.09 732.037 296.34 733.115 294.062C733.686 292.855 734.153 291.826 734.153 291.776C734.153 291.725 734.631 290.686 735.216 289.464C735.8 288.243 736.28 287.192 736.28 287.127C736.28 287.063 736.757 286.019 737.343 284.807C737.928 283.596 738.406 282.516 738.406 282.408C738.406 282.3 738.64 281.814 738.924 281.327L739.444 280.442L740.076 281.776C740.424 282.51 741.244 284.284 741.899 285.72Z" fill="white"/>
<path fill-rule="evenodd" clip-rule="evenodd" d="M450.319 272.257L449.856 272.488V296.931V321.375L450.363 321.659C450.859 321.938 451.328 321.682 471.63 310.087C495.089 296.688 493.454 297.673 493.454 296.944C493.454 296.224 495.529 297.473 472.179 284.135C448.95 270.866 450.941 271.947 450.319 272.257Z" fill="#FBFBFB"/>
<path fill-rule="evenodd" clip-rule="evenodd" d="M450.408 272.005C450.18 272.09 449.923 272.274 449.839 272.415C449.72 272.611 449.749 272.621 449.964 272.459C450.693 271.906 450.824 271.937 452.999 273.182C453.557 273.501 454.014 273.72 454.014 273.668C454.014 273.567 451.595 272.142 451.114 271.96C450.954 271.9 450.637 271.921 450.408 272.005ZM449.66 296.934C449.66 310.172 449.683 315.588 449.711 308.969C449.74 302.349 449.74 291.518 449.711 284.899C449.683 278.279 449.66 283.695 449.66 296.934ZM454.304 273.866C454.409 273.974 455.018 274.349 455.656 274.7C456.294 275.051 456.729 275.248 456.624 275.137C456.517 275.026 455.908 274.651 455.27 274.303C454.632 273.955 454.197 273.758 454.304 273.866ZM456.914 275.352C456.914 275.398 457.414 275.717 458.025 276.06C458.636 276.402 459.506 276.897 459.959 277.159C460.41 277.423 460.78 277.593 460.78 277.539C460.78 277.485 460.106 277.054 459.281 276.582C457.353 275.476 456.914 275.248 456.914 275.352ZM460.974 277.672C460.974 277.718 461.474 278.037 462.085 278.38C462.696 278.722 463.566 279.217 464.019 279.479C464.47 279.743 464.84 279.913 464.84 279.859C464.84 279.805 464.166 279.374 463.341 278.902C461.413 277.796 460.974 277.568 460.974 277.672ZM465.13 280.057C465.393 280.326 468.08 281.774 467.836 281.515C467.731 281.401 467.035 280.983 466.29 280.584C465.545 280.184 465.023 279.948 465.13 280.057ZM468.126 281.728C468.126 281.802 469.225 282.459 471.461 283.727C471.541 283.772 471.606 283.769 471.606 283.718C471.606 283.645 470.509 282.987 468.271 281.719C468.192 281.674 468.126 281.679 468.126 281.728ZM471.8 283.858C471.8 283.905 472.3 284.224 472.911 284.566C473.523 284.909 474.393 285.403 474.845 285.667C475.297 285.929 475.666 286.099 475.666 286.045C475.666 285.991 474.992 285.561 474.169 285.088C472.24 283.982 471.8 283.754 471.8 283.858ZM475.86 286.179C475.86 286.226 476.36 286.544 476.971 286.886C477.583 287.229 478.453 287.723 478.905 287.987C479.357 288.249 479.726 288.422 479.726 288.371C479.726 288.272 477.542 286.954 476.489 286.417C476.143 286.241 475.86 286.134 475.86 286.179ZM480.016 288.564C480.123 288.672 480.819 289.091 481.564 289.495C482.307 289.897 482.829 290.138 482.724 290.029C482.617 289.92 481.921 289.502 481.176 289.099C480.433 288.697 479.911 288.455 480.016 288.564ZM483.11 290.309C483.217 290.418 485.609 291.825 488.425 293.436C491.243 295.046 493.418 296.239 493.259 296.086C493.1 295.934 490.795 294.571 488.136 293.058C482.546 289.879 482.857 290.048 483.11 290.309ZM492.514 298.097C491.371 298.848 491.266 298.994 492.209 298.518C492.642 298.3 493.109 297.985 493.248 297.818C493.581 297.415 493.508 297.443 492.514 298.097ZM487.46 301.017C485.386 302.195 483.603 303.251 483.496 303.365C483.286 303.589 483.541 303.449 488.185 300.808C490.859 299.287 491.559 298.849 491.279 298.871C491.252 298.872 489.533 299.838 487.46 301.017ZM481.901 304.198C481.237 304.575 480.694 304.93 480.694 304.986C480.694 305.101 482.808 303.953 483.101 303.679C483.428 303.372 483.133 303.499 481.901 304.198ZM478.664 306.048C477.044 306.962 475.927 307.729 477.02 307.175C478.617 306.367 480.805 305.018 480.451 305.06C480.425 305.062 479.621 305.507 478.664 306.048ZM474.604 308.363C473.647 308.906 472.777 309.441 472.67 309.551C472.49 309.737 473.664 309.121 475.619 308C476.313 307.602 476.601 307.37 476.391 307.375C476.365 307.375 475.561 307.82 474.604 308.363ZM471.075 310.384C470.41 310.761 469.866 311.116 469.866 311.173C469.866 311.288 471.982 310.139 472.273 309.865C472.601 309.559 472.307 309.687 471.075 310.384ZM467.015 312.704C466.35 313.081 465.806 313.436 465.806 313.493C465.806 313.608 467.922 312.459 468.213 312.185C468.541 311.879 468.247 312.007 467.015 312.704ZM462.955 315.024C462.29 315.401 461.746 315.754 461.746 315.809C461.746 315.916 463.848 314.771 464.153 314.497C464.494 314.193 464.169 314.336 462.955 315.024ZM460.16 316.617C459.448 317.017 458.795 317.42 458.71 317.514C458.531 317.714 461.173 316.296 461.447 316.047C461.781 315.743 461.471 315.88 460.16 316.617ZM456.865 318.504C456.142 318.896 456.186 319.06 456.914 318.684C457.233 318.518 457.494 318.343 457.494 318.292C457.494 318.168 457.473 318.174 456.865 318.504ZM455.319 319.373C454.92 319.584 454.594 319.8 454.594 319.852C454.594 319.905 454.942 319.771 455.366 319.554C455.792 319.337 456.14 319.118 456.14 319.067C456.14 318.94 456.139 318.94 455.319 319.373ZM452.176 321.193C451.538 321.561 451.093 321.864 451.187 321.868C451.387 321.875 453.434 320.723 453.434 320.602C453.434 320.472 453.401 320.488 452.176 321.193Z" fill="#599DF4"/>
</g>
<defs>
<clipPath id="clip0_72_124">
<rect width="1280" height="832" fill="white"/>
</clipPath>
</defs>
</svg>
