<svg width="1280" height="832" viewBox="0 0 1280 832" fill="none" xmlns="http://www.w3.org/2000/svg">
<g clip-path="url(#clip0_72_42)">
<rect width="1280" height="832" fill="#D9008D"/>
<circle cx="640" cy="660" r="660" fill="#1B1B1B"/>
<g clip-path="url(#clip1_72_42)">
<mask id="mask0_72_42" style="mask-type:luminance" maskUnits="userSpaceOnUse" x="408" y="237" width="121" height="121">
<path d="M528.173 297.086C528.173 263.902 501.271 237 468.086 237C434.902 237 408 263.902 408 297.086C408 330.271 434.902 357.173 468.086 357.173C501.271 357.173 528.173 330.271 528.173 297.086Z" fill="white"/>
</mask>
<g mask="url(#mask0_72_42)">
<path d="M408 297.086C408 330.271 434.902 357.173 468.086 357.173C501.271 357.173 528.173 330.271 528.173 297.086C528.173 263.902 501.271 237 468.086 237C434.902 237 408 263.902 408 297.086Z" fill="#D9008D"/>
<path d="M495.388 264.226C495.302 263.74 495.121 263.276 494.855 262.86C494.59 262.444 494.245 262.085 493.84 261.802C493.436 261.52 492.98 261.32 492.498 261.214C492.016 261.108 491.518 261.098 491.032 261.184L487.69 261.785L480.404 274.553L496.703 271.661L495.388 264.226ZM478.076 263.475L462.641 266.216L455.356 278.91L470.79 276.206L478.076 263.475ZM453.065 267.906L439.32 270.31C438.355 270.476 437.492 271.012 436.917 271.805C436.342 272.598 436.099 273.584 436.241 274.553L437.517 282.064L445.742 280.599L453.065 267.906ZM438.043 285.819V319.618C438.043 321.61 438.834 323.52 440.243 324.929C441.652 326.337 443.562 327.129 445.554 327.129H490.619C492.611 327.129 494.521 326.337 495.93 324.929C497.338 323.52 498.13 321.61 498.13 319.618V285.819H438.043ZM476.574 309.478L466.584 316.989C466.026 317.408 465.363 317.663 464.668 317.725C463.974 317.788 463.275 317.656 462.651 317.344C462.028 317.032 461.503 316.553 461.137 315.959C460.77 315.366 460.576 314.682 460.576 313.985V298.963C460.576 298.266 460.77 297.582 461.137 296.989C461.503 296.396 462.028 295.916 462.651 295.605C463.275 295.292 463.974 295.161 464.668 295.223C465.363 295.286 466.026 295.54 466.584 295.959L476.574 303.47C477.04 303.82 477.419 304.273 477.679 304.795C477.94 305.316 478.076 305.891 478.076 306.474C478.076 307.057 477.94 307.632 477.679 308.154C477.419 308.675 477.04 309.129 476.574 309.478Z" fill="white"/>
</g>
<mask id="mask1_72_42" style="mask-type:luminance" maskUnits="userSpaceOnUse" x="543" y="252" width="327" height="91">
<path d="M869.463 252.022H543.194V342.151H869.463V252.022Z" fill="white"/>
</mask>
<g mask="url(#mask1_72_42)">
<path d="M624.243 284.738C621.494 283.161 618.272 282.372 614.577 282.372C610.882 282.372 607.727 283.138 604.978 284.67C602.229 286.202 600.133 288.377 598.691 291.193C597.249 294.01 596.528 297.243 596.528 300.893C596.528 304.544 597.249 307.833 598.691 310.627C600.133 313.421 602.229 315.596 604.978 317.15C607.727 318.705 610.949 319.483 614.644 319.483C618.34 319.483 621.539 318.705 624.243 317.15C626.947 315.596 629.031 313.433 630.496 310.661C631.961 307.89 632.693 304.634 632.693 300.893C632.693 297.153 631.972 294.032 630.53 291.261C629.088 288.489 626.992 286.315 624.243 284.738ZM621.235 306.673C620.672 308.228 619.827 309.433 618.7 310.29C617.574 311.146 616.222 311.574 614.644 311.574C613.067 311.574 611.715 311.146 610.589 310.29C609.462 309.433 608.606 308.217 608.02 306.639C607.434 305.062 607.141 303.169 607.141 300.961C607.141 298.753 607.434 296.714 608.02 295.114C608.606 293.514 609.462 292.297 610.589 291.464C611.715 290.63 613.045 290.213 614.577 290.213C616.289 290.213 617.698 290.664 618.802 291.565C619.906 292.466 620.728 293.717 621.269 295.317C621.81 296.916 622.08 298.798 622.08 300.961C622.08 303.124 621.799 305.118 621.235 306.673ZM667.573 306.47C666.717 307.665 665.635 308.566 664.328 309.174C663.022 309.783 661.489 310.087 659.732 310.087C657.163 310.087 655.022 309.444 653.31 308.16C651.597 306.876 650.325 305.107 649.491 302.854C648.657 300.601 648.24 298.032 648.24 295.148C648.24 292.264 648.657 289.515 649.491 287.307C650.325 285.098 651.597 283.375 653.31 282.135C655.022 280.896 657.163 280.277 659.732 280.277C661.309 280.277 662.728 280.524 663.99 281.02C665.252 281.516 666.323 282.248 667.201 283.217C668.08 284.186 668.655 285.301 668.925 286.563H680.281C679.831 283.183 678.681 280.299 676.834 277.91C674.986 275.522 672.62 273.731 669.736 272.536C666.852 271.342 663.54 270.745 659.799 270.745C655.022 270.745 650.865 271.793 647.328 273.888C643.79 275.984 641.086 278.88 639.216 282.575C637.346 286.27 636.411 290.461 636.411 295.148C636.411 299.835 637.335 304.093 639.182 307.788C641.03 311.484 643.7 314.379 647.192 316.475C650.685 318.57 654.865 319.618 659.732 319.618C663.607 319.618 667.089 318.897 670.175 317.455C673.263 316.013 675.73 313.962 677.577 311.303C679.425 308.645 680.462 305.603 680.687 302.178H669.128C668.947 303.845 668.429 305.276 667.573 306.47ZM563.95 303.124C563.95 304.792 563.804 306.144 563.511 307.18C563.218 308.217 562.711 309.005 561.99 309.546C561.269 310.087 560.255 310.357 558.948 310.357C557.101 310.357 555.76 309.816 554.926 308.735C554.092 307.653 553.676 305.918 553.676 303.53H543.194V304.544C543.194 307.698 543.792 310.402 544.986 312.655C546.18 314.909 547.96 316.632 550.326 317.826C552.692 319.021 555.61 319.618 559.079 319.618C562.865 319.618 565.974 318.998 568.408 317.759C570.841 316.52 572.644 314.672 573.816 312.216C574.987 309.76 575.573 306.73 575.573 303.124V271.827H563.946V303.124H563.95ZM581.526 318.536H592.071V283.251H581.526V318.536ZM590.005 268.447C589.082 267.951 588.034 267.703 586.862 267.703C585.6 267.703 584.507 267.951 583.584 268.447C582.66 268.943 581.939 269.596 581.421 270.407C580.902 271.218 580.643 272.187 580.643 273.314C580.643 274.44 580.902 275.421 581.421 276.254C581.939 277.088 582.648 277.764 583.55 278.282C584.451 278.8 585.532 279.06 586.794 279.06C588.056 279.06 589.093 278.812 590.039 278.316C590.985 277.82 591.695 277.144 592.168 276.288C592.642 275.432 592.878 274.463 592.878 273.382C592.878 272.3 592.63 271.275 592.135 270.441C591.639 269.607 590.929 268.943 590.005 268.447ZM684.81 318.536H695.355V283.251H684.81V318.536ZM766.198 284.772C763.561 283.172 760.326 282.372 756.497 282.372C752.936 282.372 749.805 283.172 747.101 284.772C744.397 286.371 742.3 288.591 740.814 291.43C739.327 294.269 738.584 297.446 738.584 300.961C738.584 304.792 739.338 308.092 740.848 310.864C742.357 313.635 744.464 315.765 747.167 317.252C749.871 318.739 753.049 319.483 756.701 319.483C761.071 319.483 764.699 318.547 767.583 316.677C770.468 314.807 772.45 312.137 773.532 308.667H763.931C763.481 309.749 762.683 310.605 761.531 311.236C760.383 311.867 758.954 312.182 757.242 312.182C755.439 312.182 753.927 311.822 752.712 311.101C751.494 310.38 750.572 309.377 749.941 308.092C749.324 306.838 748.967 305.295 748.867 303.462H774.206V302.178C774.206 298.167 773.532 294.663 772.18 291.667C770.828 288.67 768.832 286.371 766.198 284.772ZM748.86 297.243V297.176C749.04 295.599 749.467 294.247 750.142 293.12C750.819 291.993 751.707 291.137 752.812 290.551C753.917 289.965 755.189 289.672 756.631 289.672C758.073 289.672 759.335 289.976 760.416 290.585C761.498 291.193 762.343 292.072 762.953 293.221C763.561 294.37 763.911 295.711 764.002 297.243H748.86ZM867.821 288.456C866.739 286.383 865.04 284.839 862.717 283.825C860.397 282.811 857.436 282.304 853.831 282.304C850.225 282.304 847.485 282.699 845.212 283.487C842.935 284.276 841.176 285.448 839.937 287.002C838.699 288.557 837.898 290.438 837.537 292.647H847.612C847.882 291.475 848.476 290.574 849.401 289.943C850.326 289.312 851.668 288.996 853.423 288.996C854.865 288.996 856.014 289.233 856.872 289.706C857.726 290.179 858.337 290.889 858.698 291.835C859.058 292.782 859.238 293.976 859.238 295.418V297.041H853.56C849.818 297.041 846.654 297.457 844.06 298.291C841.47 299.125 839.5 300.364 838.148 302.009C836.796 303.654 836.119 305.783 836.119 308.397C836.119 310.695 836.616 312.678 837.607 314.345C838.599 316.013 840.004 317.286 841.83 318.165C843.656 319.043 845.809 319.483 848.286 319.483C850.135 319.483 851.791 319.246 853.253 318.773C854.719 318.3 855.914 317.68 856.838 316.914C857.76 316.148 858.561 315.247 859.238 314.21H859.576L860.05 318.536H869.443V296.297C869.443 293.142 868.902 290.529 867.821 288.456ZM859.238 305.084C859.238 306.617 858.921 307.946 858.29 309.073C857.66 310.199 856.838 311.044 855.824 311.608C854.809 312.171 853.604 312.453 852.208 312.453C851.127 312.453 850.202 312.272 849.434 311.912C848.67 311.551 848.049 311.022 847.575 310.323C847.104 309.625 846.867 308.735 846.867 307.653C846.867 306.391 847.204 305.389 847.882 304.645C848.556 303.901 849.524 303.361 850.786 303.023C852.048 302.685 853.56 302.516 855.316 302.516H859.238V305.084ZM693.29 268.447C692.366 267.951 691.318 267.703 690.147 267.703C688.885 267.703 687.792 267.951 686.868 268.447C685.944 268.943 685.223 269.596 684.705 270.407C684.187 271.218 683.928 272.187 683.928 273.314C683.928 274.44 684.187 275.421 684.705 276.254C685.223 277.088 685.933 277.764 686.834 278.282C687.736 278.8 688.817 279.06 690.079 279.06C691.341 279.06 692.377 278.812 693.324 278.316C694.27 277.82 694.98 277.144 695.453 276.288C695.926 275.432 696.163 274.463 696.163 273.382C696.163 272.3 695.915 271.275 695.419 270.441C694.924 269.607 694.214 268.943 693.29 268.447ZM826.752 283.859C824.973 282.868 822.819 282.372 820.296 282.372C817.772 282.372 815.736 282.845 813.91 283.792C812.084 284.738 810.518 286.202 809.21 288.185H808.939C808.175 286.292 806.947 284.85 805.258 283.859C803.568 282.868 801.529 282.372 799.139 282.372C796.752 282.372 794.756 282.856 793.023 283.825C791.287 284.794 789.832 286.225 788.66 288.118H788.323L788.12 283.251H778.252V318.536H788.797V298.257C788.797 295.644 789.281 293.706 790.249 292.444C791.221 291.182 792.649 290.551 794.542 290.551C796.435 290.551 797.81 291.193 798.665 292.478C799.523 293.762 799.95 295.689 799.95 298.257V318.536H810.562V298.257C810.562 296.545 810.779 295.103 811.206 293.931C811.633 292.759 812.274 291.903 813.132 291.362C813.987 290.822 815.025 290.551 816.24 290.551C818.089 290.551 819.441 291.182 820.296 292.444C821.154 293.706 821.581 295.644 821.581 298.257V318.536H832.193V294.945C832.193 292.286 831.732 290.022 830.808 288.151C829.886 286.281 828.534 284.85 826.752 283.859ZM729.353 283.893C727.55 282.879 725.342 282.372 722.728 282.372C720.295 282.372 718.166 282.856 716.34 283.825C714.515 284.794 713.062 286.202 711.981 288.05H711.642L711.44 283.251H701.435V318.536H711.981V298.528C711.981 295.779 712.51 293.762 713.569 292.478C714.628 291.193 716.217 290.551 718.335 290.551C720.453 290.551 721.872 291.205 722.863 292.511C723.855 293.818 724.351 295.801 724.351 298.46V318.536H734.896V295.621C734.896 292.737 734.423 290.315 733.476 288.354C732.53 286.394 731.155 284.907 729.353 283.893Z" fill="white"/>
</g>
</g>
</g>
<defs>
<clipPath id="clip0_72_42">
<rect width="1280" height="832" fill="white"/>
</clipPath>
<clipPath id="clip1_72_42">
<rect width="464" height="120.173" fill="white" transform="translate(408 237)"/>
</clipPath>
</defs>
</svg>
