<svg width="1280" height="832" viewBox="0 0 1280 832" fill="none" xmlns="http://www.w3.org/2000/svg">
<g clip-path="url(#clip0_72_150)">
<rect width="1280" height="832" fill="#FFBA00"/>
<circle cx="640" cy="660" r="660" fill="#1B1B1B"/>
<g clip-path="url(#clip1_72_150)">
<mask id="mask0_72_150" style="mask-type:luminance" maskUnits="userSpaceOnUse" x="408" y="147" width="464" height="290">
<path d="M872 147H408V437H872V147Z" fill="white"/>
</mask>
<g mask="url(#mask0_72_150)">
<path d="M432.726 345.346L440.103 358.084C441.625 360.705 443.804 362.883 446.425 364.406L472.768 318.818H420.082C420.082 321.841 420.876 324.814 422.38 327.438L432.726 345.346Z" fill="#0066DA"/>
</g>
<mask id="mask1_72_150" style="mask-type:luminance" maskUnits="userSpaceOnUse" x="408" y="147" width="464" height="290">
<path d="M872 147H408V437H872V147Z" fill="white"/>
</mask>
<g mask="url(#mask1_72_150)">
<path d="M503.693 265.186L477.353 219.598C474.732 221.12 472.554 223.299 471.035 225.92L422.38 310.197C420.876 312.822 420.082 315.791 420.082 318.814H472.764L503.693 265.186Z" fill="#00AC47"/>
</g>
<mask id="mask2_72_150" style="mask-type:luminance" maskUnits="userSpaceOnUse" x="408" y="147" width="464" height="290">
<path d="M872 147H408V437H872V147Z" fill="white"/>
</mask>
<g mask="url(#mask2_72_150)">
<path d="M503.693 265.186L530.032 219.598C527.418 218.072 524.439 217.281 521.412 217.303H485.974C482.951 217.329 479.985 218.119 477.354 219.602L503.693 265.186Z" fill="#00832D"/>
</g>
<mask id="mask3_72_150" style="mask-type:luminance" maskUnits="userSpaceOnUse" x="408" y="147" width="464" height="290">
<path d="M872 147H408V437H872V147Z" fill="white"/>
</mask>
<g mask="url(#mask3_72_150)">
<path d="M534.621 318.814H472.764L446.421 364.402C449.035 365.928 452.014 366.718 455.038 366.697H552.343C555.363 366.671 558.332 365.881 560.96 364.398L534.621 318.814Z" fill="#2684FC"/>
</g>
<mask id="mask4_72_150" style="mask-type:luminance" maskUnits="userSpaceOnUse" x="408" y="147" width="464" height="290">
<path d="M872 147H408V437H872V147Z" fill="white"/>
</mask>
<g mask="url(#mask4_72_150)">
<path d="M560.964 364.406C563.585 362.883 565.764 360.705 567.286 358.084L570.349 352.809L585.001 327.431C586.506 324.81 587.296 321.841 587.3 318.818H534.723L560.964 364.406Z" fill="#EA4335"/>
</g>
<mask id="mask5_72_150" style="mask-type:luminance" maskUnits="userSpaceOnUse" x="408" y="147" width="464" height="290">
<path d="M872 147H408V437H872V147Z" fill="white"/>
</mask>
<g mask="url(#mask5_72_150)">
<path d="M560.677 268.057L536.35 225.916C534.831 223.295 532.653 221.117 530.032 219.594L503.692 265.182L534.621 318.81H587.209C587.205 315.787 586.415 312.818 584.911 310.194L560.677 268.057Z" fill="#FFBA00"/>
</g>
<mask id="mask6_72_150" style="mask-type:luminance" maskUnits="userSpaceOnUse" x="408" y="147" width="464" height="290">
<path d="M872 147H408V437H872V147Z" fill="white"/>
</mask>
<g mask="url(#mask6_72_150)">
<path d="M746.941 257.95C748.623 257.668 750.458 257.621 752.056 258.306C753.184 259.1 754.315 260.013 754.982 261.246C755.674 263.261 755.674 265.567 754.945 267.578C754.083 269.123 752.654 270.529 750.824 270.765C749.019 271.051 747.028 271.062 745.379 270.174C744.081 269.173 742.758 267.897 742.512 266.201C742.164 264.439 742.272 262.507 743.095 260.898C744.074 259.611 745.278 258.269 746.941 257.95Z" fill="white"/>
</g>
<mask id="mask7_72_150" style="mask-type:luminance" maskUnits="userSpaceOnUse" x="408" y="147" width="464" height="290">
<path d="M872 147H408V437H872V147Z" fill="white"/>
</mask>
<g mask="url(#mask7_72_150)">
<path d="M640.801 258.451C648.993 258.284 657.19 258.44 665.389 258.371C666.506 258.327 667.619 258.491 668.674 258.86C671.149 259.39 673.81 259.234 676.13 260.365C686.335 263.359 694.875 271.765 697.844 281.995C699.033 284.282 698.801 286.954 699.41 289.405C700.084 291.728 699.787 294.164 699.849 296.549C699.903 297.731 699.649 298.884 699.29 300.004C698.989 302.259 698.935 304.582 698.203 306.75C697.481 308.146 697.311 309.755 696.506 311.118C692.961 319.26 685.871 325.745 677.486 328.642C675.793 329.562 673.832 329.573 672.005 330.019C670.134 330.769 668.072 330.748 666.089 330.885C657.654 330.9 649.222 330.947 640.79 330.864C640.848 306.732 640.826 282.59 640.801 258.451ZM650.491 267.636C650.414 285.649 650.44 303.662 650.48 321.674C654.764 321.678 659.046 321.736 663.33 321.649C666.459 321.334 669.754 321.638 672.708 320.362C675.431 319.557 678.026 318.296 680.303 316.599C683.384 314.388 685.62 311.234 687.364 307.907C687.748 306.957 687.955 305.942 688.368 305.003C689.256 303.009 689.256 300.783 689.572 298.663C690.413 295.857 690.206 292.827 689.488 290.024C689.017 282.557 684.779 275.423 678.36 271.541C677.171 270.71 675.768 270.297 674.492 269.634C673.14 268.96 671.584 268.931 670.182 268.401C668.547 267.771 666.767 267.865 665.045 267.81C660.202 267.473 655.341 267.662 650.491 267.636Z" fill="white"/>
</g>
<mask id="mask8_72_150" style="mask-type:luminance" maskUnits="userSpaceOnUse" x="408" y="147" width="464" height="290">
<path d="M872 147H408V437H872V147Z" fill="white"/>
</mask>
<g mask="url(#mask8_72_150)">
<path d="M827.485 281.024C829.399 280.052 831.585 279.889 833.695 279.809C836.732 279.787 839.81 279.657 842.797 280.32C846.027 281.343 849.228 282.713 851.758 285.026C854.589 287.491 856.779 290.677 858.04 294.204C858.359 295.727 859.193 297.093 859.36 298.652C859.798 301.697 859.979 304.789 859.889 307.863C846.995 308.008 834.101 307.925 821.206 307.903C820.971 310.15 821.942 312.188 822.522 314.294C824.067 317.752 826.887 320.601 830.276 322.28C833.64 323.606 837.53 324.589 841.021 323.11C845.2 321.993 848.785 318.753 850.467 314.794C853.56 315.914 856.336 317.716 859.396 318.901C856.963 323.646 853.056 327.721 848.166 329.939C846.752 330.82 845.102 331.139 843.587 331.792C840.818 332.513 837.929 332.448 835.09 332.433C832.767 332.426 830.381 332.248 828.232 331.295C822.417 329.595 817.697 325.187 814.685 320.032C813.587 318.075 812.746 315.983 812.332 313.772C811.205 311.158 811.462 308.255 811.419 305.478C811.452 303.147 811.317 300.7 812.282 298.518C813.561 292.46 817.346 287.016 822.421 283.503C823.983 282.437 825.669 281.549 827.485 281.024ZM832.513 288.796C831.447 289.26 830.316 289.557 829.258 290.032C825.64 292.062 822.899 295.665 822.091 299.747C831.309 299.801 840.531 299.768 849.753 299.765C849.514 296.064 847.169 292.642 844.098 290.633C842.743 289.597 840.977 289.459 839.451 288.777C837.175 288.328 834.771 288.216 832.513 288.796Z" fill="white"/>
</g>
<mask id="mask9_72_150" style="mask-type:luminance" maskUnits="userSpaceOnUse" x="408" y="147" width="464" height="290">
<path d="M872 147H408V437H872V147Z" fill="white"/>
</mask>
<g mask="url(#mask9_72_150)">
<path d="M725.118 280.998C727.757 279.592 730.886 279.769 733.767 280.07C735.029 280.233 736.493 280.233 737.414 281.252C737.411 282.698 736.928 284.101 736.327 285.403C735.772 286.7 735.681 288.129 735.236 289.463C734.909 289.901 734.395 290.22 733.833 290.024C731.31 289.604 728.732 289.499 726.217 290.021C722.193 291.3 718.905 294.545 717.415 298.474C716.418 300.298 716.549 302.444 716.407 304.452C716.415 313.257 716.364 322.066 716.436 330.867C713.246 330.936 710.049 330.893 706.859 330.896C706.826 314.377 706.83 297.854 706.859 281.339C709.944 281.393 713.047 281.136 716.117 281.502C716.088 283.833 716.027 286.167 716.164 288.498C717.19 287.153 718.06 285.667 719.325 284.522C721.022 283.003 722.965 281.745 725.118 280.998Z" fill="white"/>
</g>
<mask id="mask10_72_150" style="mask-type:luminance" maskUnits="userSpaceOnUse" x="408" y="147" width="464" height="290">
<path d="M872 147H408V437H872V147Z" fill="white"/>
</mask>
<g mask="url(#mask10_72_150)">
<path d="M744.117 281.35C747.321 281.303 750.526 281.324 753.73 281.335C753.741 297.854 753.752 314.373 753.723 330.889C750.522 330.914 747.318 330.918 744.113 330.885C744.135 314.377 744.135 297.865 744.117 281.35Z" fill="white"/>
</g>
<mask id="mask11_72_150" style="mask-type:luminance" maskUnits="userSpaceOnUse" x="408" y="147" width="464" height="290">
<path d="M872 147H408V437H872V147Z" fill="white"/>
</mask>
<g mask="url(#mask11_72_150)">
<path d="M760.339 281.342C763.601 281.335 766.868 281.27 770.13 281.364C771.402 281.393 771.257 282.912 771.638 283.778C774.966 292.573 778.344 301.342 781.603 310.161C782.364 311.571 782.644 313.174 783.365 314.598C783.981 316.059 784.101 317.741 785.196 318.97C787.574 313.337 789.531 307.533 791.898 301.889C792.253 300.269 793.102 298.84 793.595 297.267C795.164 293.243 796.719 289.212 798.245 285.167C798.847 284.014 799.206 282.756 799.467 281.487C802.972 281.139 806.51 281.361 810.027 281.357C808.849 284.3 807.757 287.28 806.398 290.151C805.887 291.467 805.546 292.852 804.868 294.102C801.555 302.168 798.289 310.259 794.954 318.314C793.442 322.345 791.575 326.238 790.191 330.316C789.719 331.07 788.784 330.874 788.037 330.914C785.402 330.9 782.763 330.903 780.124 330.893C779.729 329.211 778.732 327.771 778.29 326.108C774.901 317.727 771.453 309.364 768.107 300.965C766.882 298.344 766.063 295.552 764.816 292.946C763.88 290.691 763.141 288.364 762.075 286.167C761.6 284.525 760.643 283.05 760.339 281.342Z" fill="white"/>
</g>
</g>
</g>
<defs>
<clipPath id="clip0_72_150">
<rect width="1280" height="832" fill="white"/>
</clipPath>
<clipPath id="clip1_72_150">
<rect width="464" height="290" fill="white" transform="translate(408 147)"/>
</clipPath>
</defs>
</svg>
