<svg width="1280" height="832" viewBox="0 0 1280 832" fill="none" xmlns="http://www.w3.org/2000/svg">
<g clip-path="url(#clip0_59_115)">
<rect width="1280" height="832" fill="black"/>
<circle cx="640" cy="660" r="660" fill="#1B1B1B"/>
<g clip-path="url(#clip1_59_115)">
<path d="M485.554 281.491L455.479 311.736V338.711L438.245 348.585V311.724L408 281.479H428.516L446.846 299.916L465.176 281.491H485.554Z" fill="white"/>
<path d="M549.277 325.687L536.284 338.705H506.669L493.695 325.706V271.598L510.96 281.567V325.901H532.031V281.491H549.29L549.277 325.687Z" fill="white"/>
<path d="M624.499 299.141L609.37 319.6H576.869V338.705L559.623 348.585V281.491H611.525L624.499 299.141ZM606.787 300.262L602.269 294.289H576.869V306.607H602.193L606.787 300.262Z" fill="white"/>
<path d="M696.344 299.141L681.222 319.6H646.767V338.705L629.509 348.585V281.491H683.358L696.344 299.141ZM678.632 300.262L674.114 294.289H646.767V306.607H674.064L678.632 300.262Z" fill="white"/>
<path d="M765.776 281.491L753.073 294.289H736.098V338.705L718.839 348.585V294.289H701.87L689.161 281.491H765.776Z" fill="#F37121"/>
<path d="M849.076 281.491L818.043 338.705H801.944L770.911 281.491H788.453L809.94 320.697L831.433 281.491H849.076Z" fill="#F37121"/>
<path d="M727.006 268.851H858.245V358.201L871.666 334.962L871.994 268.851C871.994 268.851 872.649 261.63 863.481 261H741.732L727.006 268.851Z" fill="#3DA648"/>
</g>
</g>
<defs>
<clipPath id="clip0_59_115">
<rect width="1280" height="832" fill="white"/>
</clipPath>
<clipPath id="clip1_59_115">
<rect width="464" height="97.2007" fill="white" transform="translate(408 261)"/>
</clipPath>
</defs>
</svg>
