<svg width="1280" height="832" viewBox="0 0 1280 832" fill="none" xmlns="http://www.w3.org/2000/svg">
<g clip-path="url(#clip0_56_2)">
<rect width="1280" height="832" fill="#FF0000"/>
<circle cx="640" cy="660" r="660" fill="#1B1B1B"/>
<path d="M828.9 280.7H817V344H805.3V280.7H793.4V271H828.9V280.7ZM831.5 271H844L847.9 303.8C849 313.2 850 321.3 851.2 332.4H851.7C852.8 321.3 853.9 313.4 855 303.8L859 271H871.4L859.4 343.9H843.6L831.5 271Z" fill="white"/>
<path d="M527.9 278.3C526.5 273 522.4 269 517.2 267.5C507.7 265 469.7 265 469.7 265C469.7 265 431.7 265 422.2 267.5C417 268.9 412.9 273 411.5 278.3C409 287.8 409 307.5 409 307.5C409 307.5 409 327.3 411.5 336.7C413 342 417 346.1 422.3 347.5C431.7 350 469.7 350 469.7 350C469.7 350 507.7 350 517.2 347.5C522.4 346.1 526.5 342 528 336.8C530.5 327.3 530.5 307.6 530.5 307.6C530.5 307.6 530.4 287.8 527.9 278.3Z" fill="#FF0000"/>
<path d="M457.6 325.7L489.2 307.5L457.6 289.3V325.7Z" fill="white"/>
<path d="M585.3 342.4C582.7 340.6 580.9 337.9 580.2 334.8C579.1 330.3 578.6 325.8 578.7 321.2V313.5C578.6 308.8 579.2 304.2 580.5 299.7C581.4 296.6 583.3 293.9 585.9 292.1C588.8 290.4 592.2 289.6 595.6 289.7C599.5 289.7 602.7 290.5 605.1 292.1C607.6 294 609.5 296.6 610.3 299.7C611.5 304.2 612.1 308.8 611.9 313.5V321.2C612 325.8 611.5 330.4 610.3 334.9C609.5 338 607.7 340.6 605.1 342.5C602.7 344.1 599.4 344.9 595.3 344.9C591.1 344.8 587.7 344 585.3 342.4ZM598.8 334C599.5 332.3 599.8 329.4 599.8 325.5V309C599.9 306.2 599.6 303.3 598.8 300.6C598.4 299 596.9 297.9 595.3 297.9C593.7 297.9 592.3 299 591.9 300.6C591.1 303.3 590.8 306.2 590.9 309V325.6C590.9 329.5 591.2 332.4 591.9 334.1C592.3 335.7 593.7 336.8 595.4 336.7C597 336.7 598.4 335.6 598.8 334ZM769.9 321.3V324C769.9 326.6 770 329.1 770.2 331.7C770.3 333 770.7 334.3 771.5 335.4C772.3 336.2 773.4 336.7 774.5 336.6C776 336.7 777.5 335.9 778.2 334.5C778.9 333.1 779.2 330.8 779.3 327.5L789.6 328.2C789.7 328.8 789.7 329.5 789.7 330.1C789.7 335 788.4 338.7 785.7 341.1C783 343.5 779.2 344.7 774.3 344.7C768.4 344.7 764.3 342.8 761.9 339.1C759.5 335.4 758.3 329.7 758.3 321.9V312.6C758.3 304.6 759.5 298.8 762 295.1C764.5 291.4 768.7 289.6 774.6 289.6C778.7 289.6 781.9 290.4 784.1 291.9C786.4 293.6 788.1 296.1 788.8 298.9C789.8 303.2 790.3 307.7 790.1 312.1V321.2L769.9 321.3ZM771.4 298.9C770.7 300 770.2 301.3 770.2 302.6C770 305.2 769.9 307.8 769.9 310.4V314.2H778.7V310.4C778.7 307.8 778.6 305.2 778.3 302.6C778.2 301.3 777.8 300 777 298.9C776.3 298.1 775.2 297.7 774.2 297.8C773.1 297.7 772.1 298.1 771.4 298.9ZM556.1 320.3L542.5 271H554.4L559.2 293.3C560.4 298.8 561.3 303.5 561.9 307.4H562.3C562.7 304.6 563.6 300 565 293.4L570 271H581.9L568.1 320.3V344H556.2V320.3H556.1ZM650.6 290.7V344H641.2L640.2 337.5H639.9C637.4 342.4 633.5 344.9 628.4 344.9C624.9 344.9 622.3 343.7 620.6 341.4C618.9 339.1 618.1 335.5 618.1 330.5V290.7H630.1V329.8C630 331.5 630.3 333.3 630.9 334.9C631.4 335.9 632.4 336.5 633.5 336.4C634.6 336.4 635.6 336 636.5 335.4C637.4 334.8 638.2 334 638.6 333V290.7H650.6ZM712.1 290.7V344H702.7L701.7 337.5H701.4C698.9 342.4 695 344.9 689.9 344.9C686.4 344.9 683.8 343.7 682.1 341.4C680.4 339.1 679.6 335.5 679.6 330.5V290.7H691.6V329.8C691.5 331.5 691.8 333.3 692.4 334.9C692.9 335.9 693.9 336.5 695 336.4C696.1 336.4 697.1 336 698 335.4C698.9 334.8 699.7 334 700.1 333V290.7H712.1Z" fill="white"/>
<path d="M683.2 280.7H671.3V344H659.6V280.7H647.7V271H683.2V280.7ZM751.8 299.2C751.1 295.9 749.9 293.4 748.3 291.9C746.432 290.323 744.042 289.502 741.6 289.6C739.4 289.6 737.3 290.2 735.4 291.5C733.5 292.7 732 294.4 731 296.4H730.9V268.3H719.4V344H729.3L730.5 339H730.8C731.7 340.8 733.2 342.3 735 343.3C736.9 344.3 739 344.9 741.2 344.9C745 345 748.6 342.8 750.2 339.3C752.1 335.6 753.1 329.7 753.1 321.8V313.4C753 308.5 752.6 303.8 751.8 299.2ZM740.8 320.9C740.8 323.9 740.7 327 740.3 330C740.2 331.7 739.6 333.3 738.7 334.7C738 335.6 736.9 336.1 735.7 336.1C734.7 336.1 733.8 335.9 733 335.4C732.2 334.9 731.5 334.2 731 333.3V303.1C731.4 301.7 732.1 300.5 733.1 299.5C733.9 298.6 735.1 298.1 736.3 298.1C737.4 298.1 738.5 298.6 739.1 299.5C739.9 301 740.4 302.6 740.5 304.3C740.8 307.5 740.9 310.7 740.9 313.9L740.8 320.9Z" fill="white"/>
</g>
<defs>
<clipPath id="clip0_56_2">
<rect width="1280" height="832" fill="white"/>
</clipPath>
</defs>
</svg>
