<svg width="151" height="45" viewBox="0 0 151 45" fill="none" xmlns="http://www.w3.org/2000/svg">
<path d="M23.2713 0C10.8611 0 0.800049 10.0607 0.800049 22.471C0.800049 34.8818 10.8611 44.9418 23.2713 44.9418C35.683 44.9418 45.7429 34.8818 45.7429 22.471C45.7429 10.0615 35.683 0.00107334 23.2711 0.00107334L23.2713 0ZM33.5765 32.4097C33.174 33.0698 32.31 33.2791 31.6499 32.8739C26.3738 29.6512 19.732 28.9213 11.91 30.7084C11.1562 30.8801 10.4049 30.4079 10.2331 29.6538C10.0606 28.8998 10.531 28.1485 11.2866 27.9767C19.8466 26.0211 27.189 26.8631 33.1123 30.483C33.7724 30.8882 33.9817 31.7496 33.5765 32.4097ZM36.327 26.2911C35.8198 27.1154 34.7411 27.3757 33.9173 26.8685C27.8771 23.1558 18.6696 22.0806 11.5252 24.2493C10.5986 24.5292 9.62 24.007 9.33878 23.082C9.05971 22.1555 9.58216 21.1787 10.5071 20.897C18.668 18.4208 28.8136 19.6202 35.75 23.8827C36.5738 24.3899 36.8341 25.4683 36.327 26.2911ZM36.5631 19.9197C29.3207 15.618 17.3717 15.2225 10.4569 17.3211C9.34656 17.6579 8.17232 17.031 7.83583 15.9207C7.49933 14.8098 8.12563 13.6363 9.23681 13.2987C17.1745 10.8891 30.3699 11.3547 38.7082 16.3047C39.7091 16.8974 40.0364 18.1873 39.4434 19.1847C38.8531 20.1835 37.5597 20.5127 36.5642 19.9197H36.5631ZM61.937 20.744C58.0568 19.8188 57.3672 19.1694 57.3672 17.8049C57.3672 16.5158 58.5801 15.6483 60.386 15.6483C62.1356 15.6483 63.869 16.3071 65.6883 17.6632C65.742 17.7043 65.8118 17.7207 65.8788 17.7099C65.9486 17.6997 66.0076 17.6624 66.0479 17.6064L67.9424 14.9359C68.0202 14.8259 67.9987 14.6742 67.8941 14.5903C65.7286 12.8533 63.2921 12.0089 60.4424 12.0089C56.2536 12.0089 53.3261 14.5229 53.3261 18.1199C53.3261 21.9773 55.8511 23.3431 60.2143 24.3974C63.9254 25.2526 64.5533 25.9691 64.5533 27.2496C64.5533 28.6691 63.2867 29.5519 61.2474 29.5519C58.9826 29.5519 57.1338 28.7871 55.0676 27C55.0166 26.9544 54.9468 26.9356 54.8824 26.9383C54.8127 26.9437 54.7509 26.9759 54.708 27.0268L52.5828 29.5546C52.4942 29.6619 52.505 29.8175 52.6069 29.9088C55.0112 32.0555 57.9683 33.1878 61.1615 33.1878C65.6749 33.1878 68.5917 30.7218 68.5917 26.9034C68.5998 23.6815 66.6704 21.897 61.945 20.7475L61.937 20.744ZM78.8046 16.9175C76.8484 16.9175 75.2438 17.6882 73.9182 19.2674V17.4899C73.9182 17.3496 73.8055 17.2352 73.666 17.2352H70.191C70.0515 17.2352 69.9388 17.3496 69.9388 17.4899V37.2397C69.9388 37.3793 70.0515 37.4946 70.191 37.4946H73.666C73.8055 37.4946 73.9182 37.3793 73.9182 37.2397V31.0063C75.2438 32.4902 76.8484 33.2174 78.8046 33.2174C82.4406 33.2174 86.1221 30.4186 86.1221 25.0682C86.1275 19.7168 82.4459 16.9173 78.8073 16.9173L78.8046 16.9175ZM82.081 25.0682C82.081 27.7916 80.4039 29.6941 77.9996 29.6941C75.6248 29.6941 73.8323 27.7057 73.8323 25.0682C73.8323 22.4305 75.6248 20.4427 77.9996 20.4427C80.3636 20.4424 82.081 22.3876 82.081 25.0682ZM95.5542 16.9175C90.8717 16.9175 87.2035 20.5229 87.2035 25.1265C87.2035 29.6807 90.8475 33.2469 95.4978 33.2469C100.196 33.2469 103.875 29.6538 103.875 25.0682C103.875 20.4982 100.221 16.9181 95.5542 16.9181V16.9175ZM95.5542 29.7209C93.064 29.7209 91.1856 27.7191 91.1856 25.0669C91.1856 22.4026 92.9996 20.4692 95.4978 20.4692C98.0041 20.4692 99.8932 22.4702 99.8932 25.1251C99.8932 27.7889 98.0685 29.7209 95.5542 29.7209ZM113.873 17.2352H110.05V13.3267C110.05 13.1866 109.937 13.0723 109.797 13.0723H106.322C106.183 13.0723 106.068 13.1866 106.068 13.3267V17.2352H104.399C104.259 17.2352 104.146 17.3496 104.146 17.4899V20.4757C104.146 20.6157 104.259 20.7303 104.399 20.7303H106.068V28.4571C106.068 31.5778 107.621 33.161 110.688 33.161C111.933 33.161 112.967 32.9034 113.941 32.3506C114.021 32.3077 114.069 32.2218 114.069 32.1306V29.2862C114.069 29.2004 114.024 29.1172 113.949 29.0716C113.873 29.0233 113.78 29.0206 113.702 29.0608C113.034 29.3962 112.387 29.5519 111.662 29.5519C110.549 29.5519 110.05 29.0447 110.05 27.9123V20.7317H113.873C114.013 20.7317 114.126 20.6174 114.126 20.477V17.4915C114.131 17.3512 114.018 17.2369 113.876 17.2369L113.873 17.2352ZM127.194 17.2505V16.7705C127.194 15.3582 127.736 14.7284 128.949 14.7284C129.673 14.7284 130.255 14.8723 130.907 15.0896C130.988 15.1148 131.071 15.1022 131.136 15.0542C131.203 15.0062 131.24 14.9292 131.24 14.8476V11.92C131.24 11.8081 131.17 11.7091 131.06 11.6761C130.373 11.4714 129.493 11.2613 128.173 11.2613C124.966 11.2613 123.268 13.0682 123.268 16.485V17.2202H121.599C121.459 17.2202 121.344 17.3345 121.344 17.4746V20.4757C121.344 20.6157 121.459 20.7303 121.599 20.7303H123.268V32.6458C123.268 32.788 123.383 32.9007 123.523 32.9007H126.995C127.137 32.9007 127.25 32.788 127.25 32.6458V20.7311H130.494L135.464 32.6458C134.9 33.8962 134.345 34.1458 133.588 34.1458C132.976 34.1458 132.33 33.9633 131.672 33.6011C131.611 33.5689 131.535 33.5635 131.471 33.5823C131.404 33.6064 131.348 33.6547 131.321 33.7191L130.143 36.3032C130.086 36.4267 130.135 36.5689 130.253 36.6333C131.482 37.2988 132.59 37.5832 133.961 37.5832C136.526 37.5832 137.946 36.3864 139.194 33.1717L145.221 17.5983C145.253 17.5199 145.242 17.4314 145.194 17.3619C145.148 17.2929 145.07 17.2513 144.987 17.2513H141.37C141.26 17.2513 141.163 17.3203 141.128 17.422L137.423 28.0036L133.365 17.415C133.328 17.3165 133.234 17.2513 133.129 17.2513H127.194V17.2505ZM119.471 17.2352H115.996C115.856 17.2352 115.741 17.3496 115.741 17.4899V32.6458C115.741 32.788 115.856 32.9007 115.996 32.9007H119.471C119.611 32.9007 119.726 32.788 119.726 32.6458V17.491C119.726 17.3506 119.613 17.2363 119.471 17.2363V17.2352ZM117.754 10.3339C116.377 10.3339 115.261 11.448 115.261 12.8243C115.261 14.2014 116.377 15.3169 117.754 15.3169C119.13 15.3169 120.244 14.2014 120.244 12.8243C120.244 11.4483 119.128 10.3339 117.754 10.3339ZM148.188 22.1085C146.814 22.1085 145.744 21.0043 145.744 19.6634C145.744 18.3225 146.828 17.2057 148.202 17.2057C149.576 17.2057 150.646 18.3097 150.646 19.6495C150.646 20.9903 149.562 22.1085 148.188 22.1085ZM148.202 17.4488C146.949 17.4488 146.001 18.4444 146.001 19.6634C146.001 20.8819 146.943 21.864 148.188 21.864C149.441 21.864 150.389 20.8693 150.389 19.6495C150.389 18.4309 149.447 17.4488 148.202 17.4488ZM148.744 19.9009L149.436 20.8691H148.851L148.229 19.9809H147.695V20.8691H147.206V18.3027H148.349C148.948 18.3027 149.339 18.6078 149.339 19.1214C149.342 19.5421 149.098 19.7992 148.746 19.9009H148.744ZM148.331 18.743H147.695V19.5547H148.331C148.647 19.5547 148.838 19.3994 148.838 19.1485C148.838 18.8844 148.647 18.743 148.331 18.743Z" fill="#1ED760"/>
</svg>
