<svg xmlns="http://www.w3.org/2000/svg" xmlns:xlink="http://www.w3.org/1999/xlink" width="164" height="28" viewBox="0 0 164 28">
  <defs>
    <linearGradient id="linear-gradient" y1="0.5" x2="1" y2="0.5" gradientUnits="objectBoundingBox">
      <stop offset="0" stop-color="#e21a5e"/>
      <stop offset="0.14" stop-color="#e42559"/>
      <stop offset="0.29" stop-color="#e63651"/>
      <stop offset="0.34" stop-color="#e94649"/>
      <stop offset="0.45" stop-color="#f07033"/>
      <stop offset="0.59" stop-color="#fbb310"/>
      <stop offset="0.64" stop-color="#ffcb04"/>
      <stop offset="0.91" stop-color="#2ba6de"/>
    </linearGradient>
  </defs>
  <g id="Logo_unit" transform="translate(0 -10.592)">
    <path id="Watch_Logo-18" data-name="Watch Logo-18" d="M57.19,36.675a4.209,4.209,0,0,1-1.231,2.969A4.164,4.164,0,0,1,53,40.866a3.962,3.962,0,0,1-2.933-1.237,4.068,4.068,0,0,1-1.214-2.954V20.248H42.265v16.43a4.209,4.209,0,0,1-1.23,2.969,4.164,4.164,0,0,1-2.959,1.223,3.954,3.954,0,0,1-2.933-1.237,4.063,4.063,0,0,1-1.216-2.954V20.248H27.34v16.43A10.422,10.422,0,0,0,30.5,44.327a10.7,10.7,0,0,0,15.032.138,10.772,10.772,0,0,0,18.238-7.787V20.248H57.19ZM84.764,22.384a8.767,8.767,0,0,0-5.545-2.1H69.081v6.623h10.13a2.557,2.557,0,0,1,2.126,1.02,9.137,9.137,0,0,1,1,2.293H74.751a7.606,7.606,0,0,0-5.586,2.345,7.735,7.735,0,0,0-2.336,5.659v.621a8,8,0,0,0,7.928,7.971h9.25V40.2H74.713q-1.295,0-1.3-1.978a1.332,1.332,0,0,1,.395-.966,1.226,1.226,0,0,1,.9-.409H84.6l3.469,9.975h7.023L88.257,27.2a10.459,10.459,0,0,0-3.493-4.819ZM103.544,37.8l-2.407-6.946h4.712V24.234h-7l-1.373-3.947H90.545l6.838,19.742a10.473,10.473,0,0,0,3.521,4.8,8.6,8.6,0,0,0,5.4,1.993h4.169V40.2h-4.147Q104.42,40.2,103.544,37.8Zm50.117-7.574H143.4V20.286h-6.623V46.818H143.4V36.884h10.256v9.934h6.627V20.286h-6.622Zm-39.245-6.036a13.156,13.156,0,0,0-3.688,9.388,13.106,13.106,0,0,0,3.688,9.368,11.8,11.8,0,0,0,8.858,3.878h9.25V40.154h-9.25a5.429,5.429,0,0,1-4.189-1.928,6.711,6.711,0,0,1-1.729-4.65,6.8,6.8,0,0,1,1.729-4.676,5.4,5.4,0,0,1,4.189-1.95h9.25V20.286h-9.25A11.766,11.766,0,0,0,114.416,24.185Zm72.985-.357a13.272,13.272,0,0,0-19.239,0A13.756,13.756,0,0,0,164.2,33.7a13.767,13.767,0,0,0,3.964,9.849,13.221,13.221,0,0,0,19.239,0A13.815,13.815,0,0,0,191.34,33.7,13.8,13.8,0,0,0,187.4,23.828Zm-4.678,15.054a6.688,6.688,0,0,1-9.905,0,7.631,7.631,0,0,1,0-10.366,6.688,6.688,0,0,1,9.905,0,7.631,7.631,0,0,1,0,10.366Z" transform="translate(-27.34 -9.108)" fill="url(#linear-gradient)"/>
  </g>
</svg>
