<svg width="500" height="500" viewBox="0 0 500 500" fill="none" xmlns="http://www.w3.org/2000/svg">
<rect width="500" height="500" rx="50" fill="white"/>
<rect x="108" y="108" width="284" height="284" rx="45" stroke="black" stroke-width="10"/>
<path d="M194.023 200L180.705 153.455H191.455L199.159 185.795H199.545L208.045 153.455H217.25L225.727 185.864H226.136L233.841 153.455H244.591L231.273 200H221.682L212.818 169.568H212.455L203.614 200H194.023ZM261.835 200.682C258.244 200.682 255.153 199.955 252.562 198.5C249.987 197.03 248.002 194.955 246.608 192.273C245.214 189.576 244.517 186.386 244.517 182.705C244.517 179.114 245.214 175.962 246.608 173.25C248.002 170.538 249.964 168.424 252.494 166.909C255.04 165.394 258.025 164.636 261.449 164.636C263.752 164.636 265.896 165.008 267.881 165.75C269.881 166.477 271.623 167.576 273.108 169.045C274.608 170.515 275.775 172.364 276.608 174.591C277.441 176.803 277.858 179.394 277.858 182.364V185.023H248.381V179.023H268.744C268.744 177.629 268.441 176.394 267.835 175.318C267.229 174.242 266.388 173.402 265.312 172.795C264.252 172.174 263.017 171.864 261.608 171.864C260.138 171.864 258.835 172.205 257.699 172.886C256.578 173.553 255.699 174.455 255.062 175.591C254.426 176.712 254.1 177.962 254.085 179.341V185.045C254.085 186.773 254.403 188.265 255.04 189.523C255.691 190.78 256.608 191.75 257.79 192.432C258.972 193.114 260.373 193.455 261.994 193.455C263.07 193.455 264.055 193.303 264.949 193C265.843 192.697 266.608 192.242 267.244 191.636C267.881 191.03 268.366 190.288 268.699 189.409L277.653 190C277.199 192.152 276.267 194.03 274.858 195.636C273.464 197.227 271.661 198.47 269.449 199.364C267.252 200.242 264.714 200.682 261.835 200.682ZM284.358 200V153.455H294.04V170.955H294.335C294.759 170.015 295.373 169.061 296.176 168.091C296.994 167.106 298.055 166.288 299.358 165.636C300.676 164.97 302.313 164.636 304.267 164.636C306.813 164.636 309.161 165.303 311.312 166.636C313.464 167.955 315.184 169.947 316.472 172.614C317.759 175.265 318.403 178.591 318.403 182.591C318.403 186.485 317.775 189.773 316.517 192.455C315.275 195.121 313.578 197.144 311.426 198.523C309.29 199.886 306.896 200.568 304.244 200.568C302.366 200.568 300.767 200.258 299.449 199.636C298.146 199.015 297.078 198.235 296.244 197.295C295.411 196.341 294.775 195.379 294.335 194.409H293.903V200H284.358ZM293.835 182.545C293.835 184.621 294.123 186.432 294.699 187.977C295.275 189.523 296.108 190.727 297.199 191.591C298.29 192.439 299.616 192.864 301.176 192.864C302.752 192.864 304.085 192.432 305.176 191.568C306.267 190.689 307.093 189.477 307.653 187.932C308.229 186.371 308.517 184.576 308.517 182.545C308.517 180.53 308.237 178.758 307.676 177.227C307.116 175.697 306.29 174.5 305.199 173.636C304.108 172.773 302.767 172.341 301.176 172.341C299.6 172.341 298.267 172.758 297.176 173.591C296.1 174.424 295.275 175.606 294.699 177.136C294.123 178.667 293.835 180.47 293.835 182.545Z" fill="black"/>
<rect width="213" height="182" transform="translate(144 215)" fill="white"/>
<path d="M149.327 270.925V251.909H238.922V270.925H205.523V361H182.725V270.925H149.327ZM273.386 251.909L299.753 334.793H300.765L327.185 251.909H352.754L315.147 361H285.424L247.764 251.909H273.386Z" fill="black"/>
</svg>
