<svg width="916" height="916" viewBox="0 0 916 916" fill="none" xmlns="http://www.w3.org/2000/svg">
<rect width="916" height="916" rx="100" fill="black"/>
<path d="M275 633C309.612 633 343.446 622.736 372.225 603.507C401.003 584.278 423.433 556.947 436.679 524.97C449.924 492.993 453.39 457.806 446.637 423.859C439.885 389.913 423.218 358.731 398.744 334.256C374.269 309.782 343.087 293.115 309.141 286.363C275.194 279.61 240.007 283.076 208.03 296.321C176.053 309.566 148.722 331.997 129.493 360.775C110.264 389.554 100 423.388 100 458C100.056 504.396 118.511 548.875 151.318 581.682C184.125 614.489 228.604 632.944 275 633ZM145.968 541.697C151.304 540.023 156.93 539.477 162.488 540.092C177.064 540.514 197.049 541.148 216.484 511.784C218.976 507.982 226.624 496.49 242.087 506.503C261.902 519.178 278.802 559.443 258.987 590.581C255.162 596.557 252.31 603.103 250.537 609.974C229.311 606.512 209.042 598.649 191.034 586.891C173.026 575.133 157.675 559.739 145.968 541.697ZM426.382 430.453C413.782 445.943 403.493 463.177 395.835 481.618C379.358 519.263 353.247 531.853 343.868 528.093C338.967 526.107 340.107 516.305 343.403 507.475C357.472 469.957 335.375 451.113 315.856 434.509C304.406 424.749 292.576 414.651 287.126 400.709C285.309 396.019 285.351 393.357 285.9 392.47C289.154 387.654 309.518 387.231 321.644 386.978C338.544 386.597 354.472 386.302 364.824 379.88C371.71 375.655 375.133 370.416 375.006 364.458C375.006 354.699 365.838 349.586 356.289 344.178C346.741 338.77 333.854 331.503 332.418 321.067C332.143 319.19 332.143 317.283 332.418 315.406C356.485 325.144 377.71 340.789 394.133 360.897C410.555 381.004 421.647 404.926 426.382 430.453ZM211.625 317.772C215.834 326.561 222.042 334.244 229.75 340.207C202.71 346.333 198.865 357.572 185.599 396.399C184.204 400.624 182.726 404.849 181.036 409.666C173.388 431.805 161.685 440.213 153.531 438.649C146.56 437.34 141.954 429.016 142.377 418.412C142.969 407.367 141.872 396.297 139.124 385.583C155.194 355.635 180.671 331.807 211.625 317.772ZM122.9 433.115C124.378 439.577 127.667 445.485 132.38 450.146C137.094 454.808 143.038 458.03 149.517 459.437C151.469 459.793 153.448 459.977 155.432 459.986C171.065 459.986 189.739 448.747 200.893 416.595C202.583 411.736 204.062 407.3 205.456 403.244C219.061 363.444 219.061 363.444 239.721 359.726C246.143 358.586 256.917 356.642 259.241 347.262C261.564 337.883 254.466 332.897 247.664 327.616C241.058 323.103 235.496 317.224 231.356 310.378C257.571 302.675 285.362 302.077 311.884 308.646C310.714 313.616 310.499 318.763 311.251 323.814C314.081 344.474 333.052 355.248 345.6 362.388L347.924 363.698C339.009 365.107 329.993 365.772 320.968 365.684C299.59 366.106 277.45 366.571 268.113 380.556C263.212 387.865 262.874 397.16 267.184 408.187C274.535 427.242 289.069 439.621 301.913 450.437C321.813 467.337 331.826 477.351 323.376 499.912C313.405 527.29 323.25 542.5 335.925 547.612C339.564 549.071 343.454 549.803 347.374 549.767C369.175 549.767 398.075 529.698 415.186 490.068C419.148 480.935 423.678 472.06 428.748 463.493C427.284 503.307 410.45 541.006 381.782 568.674C353.114 596.341 314.842 611.825 275 611.875H272.211C273.35 608.381 274.926 605.045 276.901 601.946C304.153 558.851 281.718 507.052 253.579 488.843C233.51 475.787 212.047 480.224 198.95 500.25C185.852 520.277 176.43 519.516 163.206 519.094C153.842 518.153 144.392 519.607 135.744 523.319C126.094 502.897 121.101 480.587 121.125 458C121.136 449.664 121.815 441.342 123.153 433.115H122.9Z" fill="url(#paint0_linear_29_6)"/>
<path d="M596.674 394.091V433.864H481.706V394.091H596.674ZM507.807 348.352H560.754V526.335C560.754 531.224 561.5 535.036 562.991 537.77C564.483 540.421 566.554 542.286 569.206 543.363C571.94 544.44 575.089 544.979 578.652 544.979C581.138 544.979 583.624 544.772 586.109 544.357C588.595 543.86 590.501 543.487 591.827 543.239L600.154 582.638C597.503 583.467 593.774 584.42 588.968 585.497C584.162 586.657 578.321 587.362 571.443 587.61C558.683 588.107 547.497 586.409 537.885 582.514C528.356 578.62 520.94 572.571 515.637 564.368C510.334 556.165 507.724 545.807 507.807 533.295V348.352ZM809.147 394.091L742.404 585H682.745L616.001 394.091H671.931L711.58 530.685H713.569L753.093 394.091H809.147Z" fill="url(#paint1_linear_29_6)"/>
<defs>
<linearGradient id="paint0_linear_29_6" x1="275" y1="283" x2="275" y2="633" gradientUnits="userSpaceOnUse">
<stop stop-color="white"/>
<stop offset="1" stop-color="white" stop-opacity="0.35"/>
</linearGradient>
<linearGradient id="paint1_linear_29_6" x1="645" y1="246" x2="645" y2="670" gradientUnits="userSpaceOnUse">
<stop stop-color="white"/>
<stop offset="1" stop-color="white" stop-opacity="0.35"/>
</linearGradient>
</defs>
</svg>
