<svg width="162" height="36" viewBox="0 0 162 36" fill="none" xmlns="http://www.w3.org/2000/svg">
<path d="M50.3508 5.62182C49.7582 3.40781 48.0181 1.66792 45.8041 1.07526C41.7954 3.21864e-07 25.7129 0 25.7129 0C25.7129 0 9.63074 3.21864e-07 5.6218 1.07526C3.40781 1.66792 1.66792 3.40781 1.07526 5.62182C3.21864e-07 9.63074 0 18 0 18C0 18 3.21864e-07 26.3692 1.07526 30.3782C1.66792 32.5922 3.40781 34.332 5.6218 34.9246C9.63074 35.9999 25.7129 35.9999 25.7129 35.9999C25.7129 35.9999 41.7954 35.9999 45.8041 34.9246C48.0181 34.332 49.7582 32.5922 50.3508 30.3782C51.4261 26.3692 51.4261 18 51.4261 18C51.4261 18 51.4217 9.63074 50.3508 5.62182Z" fill="#FF0000"/>
<path d="M20.566 25.7132L33.9263 18.0002L20.566 10.2871V25.7132Z" fill="white"/>
<path d="M62.2846 23.406L56.5104 2.55276H61.5481L63.5716 12.0057C64.0881 14.334 64.4648 16.3194 64.7103 17.9619H64.8585C65.0278 16.7851 65.4089 14.8124 65.9973 12.0396L68.0927 2.55276H73.1303L67.2841 23.406V33.4093H62.2805V23.406H62.2846Z" fill="#282828"/>
<path d="M74.6458 32.7481C73.6298 32.0623 72.9059 30.9955 72.4741 29.5478C72.0466 28.1 71.8307 26.1782 71.8307 23.7735V20.5012C71.8307 18.0755 72.0763 16.124 72.5673 14.6551C73.0583 13.1861 73.8246 12.1108 74.8659 11.4378C75.9074 10.7647 77.2747 10.426 78.9681 10.426C80.636 10.426 81.9694 10.7689 82.9769 11.4547C83.9802 12.1405 84.7167 13.2157 85.1824 14.672C85.6481 16.1325 85.881 18.0755 85.881 20.5012V23.7735C85.881 26.1782 85.6524 28.1085 85.1995 29.5647C84.7464 31.0252 84.0099 32.092 82.9938 32.7651C81.9779 33.4383 80.5978 33.7768 78.8579 33.7768C77.063 33.781 75.6619 33.4339 74.6458 32.7481ZM80.3438 29.2176C80.6232 28.4811 80.7672 27.283 80.7672 25.6151V18.5921C80.7672 16.9749 80.6275 15.7896 80.3438 15.0445C80.0602 14.2952 79.565 13.9227 78.8536 13.9227C78.168 13.9227 77.6811 14.2952 77.4017 15.0445C77.1181 15.7938 76.9784 16.9749 76.9784 18.5921V25.6151C76.9784 27.283 77.1137 28.4852 77.3848 29.2176C77.6557 29.9542 78.1424 30.3225 78.8536 30.3225C79.565 30.3225 80.0602 29.9542 80.3438 29.2176Z" fill="#282828"/>
<path d="M102.268 33.4136H98.2972L97.8569 30.6535H97.7469C96.6673 32.7362 95.0501 33.7775 92.8912 33.7775C91.3969 33.7775 90.292 33.2865 89.5809 32.3087C88.8697 31.3265 88.514 29.7941 88.514 27.7114V10.867H93.5898V27.4149C93.5898 28.4225 93.6998 29.1379 93.9199 29.5655C94.1401 29.993 94.5084 30.2089 95.0248 30.2089C95.4651 30.2089 95.8884 30.0735 96.2949 29.8026C96.7013 29.5315 96.9976 29.1886 97.1965 28.7739V10.8628H102.268V33.4136Z" fill="#282828"/>
<path d="M116.056 6.63717H111.018V33.4127H106.053V6.63717H101.015V2.55627H116.056V6.63717Z" fill="#282828"/>
<path d="M128.298 33.4136H124.328L123.887 30.6535H123.777C122.698 32.7362 121.081 33.7775 118.922 33.7775C117.427 33.7775 116.323 33.2865 115.611 32.3087C114.9 31.3265 114.544 29.7941 114.544 27.7114V10.867H119.62V27.4149C119.62 28.4225 119.73 29.1379 119.95 29.5655C120.171 29.993 120.539 30.2089 121.055 30.2089C121.496 30.2089 121.919 30.0735 122.325 29.8026C122.732 29.5315 123.028 29.1886 123.227 28.7739V10.8628H128.298V33.4136Z" fill="#282828"/>
<path d="M145.096 14.4692C144.787 13.0468 144.292 12.0181 143.606 11.3789C142.92 10.7396 141.976 10.4221 140.774 10.4221C139.843 10.4221 138.971 10.6846 138.162 11.2138C137.354 11.7429 136.727 12.433 136.287 13.2923H136.249V1.4137H131.359V33.4089H135.55L136.067 31.2754H136.177C136.57 32.0373 137.159 32.6342 137.942 33.0788C138.725 33.5191 139.597 33.7392 140.554 33.7392C142.269 33.7392 143.534 32.9476 144.343 31.3684C145.151 29.7852 145.558 27.3172 145.558 23.956V20.3874C145.558 17.8685 145.401 15.8916 145.096 14.4692ZM140.444 23.668C140.444 25.3105 140.376 26.5975 140.241 27.5289C140.105 28.4602 139.881 29.1249 139.559 29.5143C139.242 29.9079 138.81 30.1027 138.272 30.1027C137.853 30.1027 137.468 30.0053 137.112 29.8064C136.757 29.6116 136.469 29.3154 136.249 28.9258V16.1286C136.418 15.5148 136.714 15.0153 137.134 14.6216C137.548 14.2279 138.006 14.0331 138.492 14.0331C139.009 14.0331 139.407 14.2363 139.686 14.6385C139.97 15.0449 140.165 15.7222 140.275 16.679C140.385 17.6357 140.44 18.9945 140.44 20.7598V23.668H140.444Z" fill="#282828"/>
<path d="M152.758 24.9676C152.758 26.4154 152.801 27.4992 152.885 28.2231C152.97 28.9469 153.148 29.4719 153.419 29.8064C153.69 30.1365 154.105 30.3016 154.668 30.3016C155.425 30.3016 155.95 30.0053 156.23 29.4169C156.513 28.8284 156.666 27.8464 156.691 26.4748L161.068 26.7329C161.094 26.9277 161.106 27.1986 161.106 27.5415C161.106 29.6242 160.535 31.1821 159.396 32.2108C158.258 33.2395 156.645 33.7559 154.562 33.7559C152.06 33.7559 150.307 32.9728 149.304 31.4023C148.297 29.8318 147.797 27.4061 147.797 24.1209V20.184C147.797 16.8016 148.318 14.3294 149.359 12.7715C150.401 11.2137 152.183 10.4348 154.71 10.4348C156.45 10.4348 157.788 10.7523 158.719 11.3915C159.65 12.0307 160.306 13.0213 160.687 14.3717C161.068 15.7221 161.259 17.5848 161.259 19.9638V23.8246H152.758V24.9676ZM153.402 14.3421C153.144 14.6596 152.974 15.1803 152.885 15.9042C152.801 16.6281 152.758 17.7245 152.758 19.1977V20.8149H156.471V19.1977C156.471 17.7499 156.42 16.6535 156.323 15.9042C156.226 15.1549 156.048 14.63 155.789 14.3209C155.531 14.0161 155.133 13.8595 154.596 13.8595C154.054 13.8637 153.656 14.0246 153.402 14.3421Z" fill="#282828"/>
</svg>
