<svg width="151" height="32" viewBox="0 0 151 32" fill="none" xmlns="http://www.w3.org/2000/svg">
<path d="M25.4711 6.62424L15.7486 16.4017V25.122L10.1775 28.3139V16.3976L0.400024 6.62017H7.03242L12.958 12.5804L18.8835 6.62424H25.4711Z" fill="white"/>
<path d="M46.071 20.9116L41.8708 25.12H32.297L28.1029 20.9177V3.42618L33.6842 6.64868V20.9808H40.4958V6.62423H46.0751L46.071 20.9116Z" fill="white"/>
<path d="M70.3884 12.3298L65.4977 18.9439H54.9909V25.12L49.4157 28.3139V6.62423H66.1943L70.3884 12.3298ZM64.6625 12.6924L63.202 10.7613H54.9909V14.7436H63.1775L64.6625 12.6924Z" fill="white"/>
<path d="M93.614 12.3298L88.7253 18.9439H77.5871V25.12L72.0078 28.3139V6.62423H89.4158L93.614 12.3298ZM87.8881 12.6924L86.4276 10.7613H77.5871V14.7436H86.4113L87.8881 12.6924Z" fill="white"/>
<path d="M116.059 6.62423L111.953 10.7613H106.465V25.12L100.886 28.3139V10.7613H95.4004L91.2918 6.62423H116.059Z" fill="#F37121"/>
<path d="M142.988 6.62423L132.956 25.12H127.752L117.72 6.62423H123.39L130.337 19.2983L137.285 6.62423H142.988Z" fill="#F37121"/>
<path d="M103.526 2.53807H145.952V31.4224L150.291 23.91L150.397 2.53807C150.397 2.53807 150.609 0.203695 147.645 0H108.286L103.526 2.53807Z" fill="#3DA648"/>
</svg>
