<svg width="97" height="96" viewBox="0 0 97 96" fill="none" xmlns="http://www.w3.org/2000/svg">
<path fill-rule="evenodd" clip-rule="evenodd" d="M48.223 3.717V0.561005C21.811 0.560005 0.400024 21.83 0.400024 48.067C0.400024 74.304 21.811 95.573 48.223 95.573V92.417C31.077 92.402 14.733 82.517 7.38402 65.925C-2.54298 43.511 7.69903 17.345 30.263 7.483C35.9251 5.00005 42.0404 3.71774 48.223 3.717Z" fill="#22BBBE"/>
<path fill-rule="evenodd" clip-rule="evenodd" d="M31.532 10.386L30.25 7.48901C7.68503 17.351 -2.55697 43.516 7.37103 65.93C17.299 88.344 43.639 98.52 66.203 88.657L64.919 85.761C53.251 90.849 39.385 90.544 27.503 83.729C7.67903 72.36 0.887032 47.18 12.333 27.487C16.7431 19.883 23.4704 13.8902 31.532 10.386Z" fill="#7DAD41"/>
<path fill-rule="evenodd" clip-rule="evenodd" d="M67.362 15.139L68.947 12.411C49.123 1.04102 23.775 7.79002 12.329 27.481C0.884037 47.173 7.67704 72.354 27.5 83.723L29.09 80.988C25.9133 79.159 23.0163 76.8823 20.488 74.228C5.94304 59.003 6.57804 34.948 21.904 20.499C34.488 8.63602 53.065 6.94002 67.362 15.14" fill="#F4B719"/>
<path fill-rule="evenodd" clip-rule="evenodd" d="M24.08 22.794L21.895 20.507C6.56801 34.956 5.92701 59.003 20.472 74.228C35.017 89.454 59.232 90.083 74.558 75.635L72.366 73.34C64.194 81.03 52.449 84.682 40.633 82.079C21.723 77.915 9.79301 59.311 13.985 40.527C15.4922 33.7361 19.01 27.5567 24.08 22.794Z" fill="#E55824"/>
<path fill-rule="evenodd" clip-rule="evenodd" d="M55.1241 17.149L55.8141 14.055C36.9041 9.89101 18.1771 21.742 13.9841 40.527C9.79207 59.311 21.7241 77.915 40.6331 82.079L41.3231 78.989L41.3181 78.988C24.1251 75.2 13.2791 58.288 17.0901 41.212C20.9011 24.136 37.9271 13.362 55.1171 17.147L55.1241 17.149Z" fill="#B52C80"/>
<path fill-rule="evenodd" clip-rule="evenodd" d="M71.642 52.89H79.715C79.887 51.773 79.999 50.637 80.051 49.485L71.641 49.526L71.642 52.89ZM71.642 43.142V46.392L80.036 46.35C79.9782 45.2756 79.8657 44.2049 79.699 43.142H71.642Z" fill="#FEFEFE"/>
<path fill-rule="evenodd" clip-rule="evenodd" d="M68.118 56.024V40.008H79.04C75.45 26.42 63.005 16.397 48.2 16.397C30.592 16.397 16.317 30.577 16.317 48.067C16.317 65.558 30.592 79.738 48.199 79.738C63.041 79.738 75.513 69.664 79.066 56.024H68.116H68.118ZM84.207 53.835L85.952 51.805C87.237 52.99 88.592 53.72 90.083 53.72C92.011 53.72 93.273 52.626 93.273 50.961V50.916C93.273 49.297 91.896 48.271 89.945 48.271C88.797 48.271 87.811 48.591 86.985 48.978L85.285 47.86L85.745 40.04H95.339V42.525H88.178L87.925 46.265C88.683 45.991 89.395 45.808 90.473 45.808C93.594 45.808 96.05 47.45 96.05 50.824V50.87C96.05 54.13 93.663 56.274 90.106 56.274C87.65 56.274 85.722 55.294 84.206 53.834" fill="#FEFEFE"/>
<path fill-rule="evenodd" clip-rule="evenodd" d="M63.848 43.142H55.095V46.392H63.848V49.526H55.095V52.89H63.848V56.024H51.57V40.008H63.847L63.848 43.142ZM47.863 42.685L38.994 52.935H47.863V56.025H34.433V53.347L43.301 43.097H34.711V40.008H47.863V42.685ZM80.038 46.35H79.921L71.641 46.391V43.142H79.702C79.5357 42.0864 79.3154 41.0401 79.042 40.007H68.119V56.024H79.07C79.338 54.999 79.554 53.954 79.718 52.89H71.643V49.526L79.94 49.486L80.052 49.485C80.0987 48.4408 80.095 47.3948 80.039 46.351" fill="#020303"/>
</svg>
